<?xml version="1.0" encoding="utf-8"?>
<!-- Generator: Adobe Illustrator 22.0.1, SVG Export Plug-In . SVG Version: 6.00 Build 0)  -->
<svg version="1.1" id="Layer_1" xmlns="http://www.w3.org/2000/svg" xmlns:xlink="http://www.w3.org/1999/xlink" x="0px" y="0px"
	 viewBox="0 0 121.3 121.3" style="enable-background:new 0 0 121.3 121.3;" xml:space="preserve">
<style type="text/css">
	.st0{fill:url(#SVGID_1_);}
	.st1{fill:url(#SVGID_2_);}
	.st2{fill:url(#SVGID_3_);}
	.st3{fill:url(#SVGID_4_);}
	.st4{opacity:0.62;fill:url(#SVGID_5_);}
	.st5{opacity:0.62;fill:url(#SVGID_6_);}
	.st6{opacity:0.62;fill:url(#SVGID_7_);}
	.st7{opacity:0.62;fill:url(#SVGID_8_);}
	.st8{fill:url(#SVGID_9_);}
	.st9{fill:url(#SVGID_10_);}
	.st10{fill:url(#SVGID_11_);}
	.st11{fill:url(#SVGID_12_);}
	.st12{fill:url(#SVGID_13_);}
	.st13{fill:url(#SVGID_14_);}
	.st14{fill:url(#SVGID_15_);}
	.st15{fill:url(#SVGID_16_);}
	.st16{fill:url(#SVGID_17_);}
	.st17{fill:#FFFFFF;}
	.st18{fill:url(#SVGID_18_);}
	.st19{fill:url(#SVGID_19_);}
	.st20{fill:url(#SVGID_20_);}
</style>
<g>
	<g>
		<linearGradient id="SVGID_1_" gradientUnits="userSpaceOnUse" x1="23.3751" y1="-28.5267" x2="118.9015" y2="66.9997">
			<stop  offset="0" style="stop-color:#B2D3FD"/>
			<stop  offset="1" style="stop-color:#83B0F3"/>
		</linearGradient>
		<path class="st0" d="M120.2,55.4h-28c-0.6,0-1.1-0.5-1.1-1.1c0-0.6,0.5-1.1,1.1-1.1h28c0.6,0,1.1,0.5,1.1,1.1
			C121.3,54.9,120.8,55.4,120.2,55.4z"/>
	</g>
	<g>
		<linearGradient id="SVGID_2_" gradientUnits="userSpaceOnUse" x1="17.6806" y1="-22.8322" x2="113.207" y2="72.6942">
			<stop  offset="0" style="stop-color:#B2D3FD"/>
			<stop  offset="1" style="stop-color:#83B0F3"/>
		</linearGradient>
		<path class="st1" d="M120.2,66.9H92.3c-0.6,0-1.1-0.5-1.1-1.1c0-0.6,0.5-1.1,1.1-1.1h27.9c0.6,0,1.1,0.5,1.1,1.1
			C121.3,66.4,120.8,66.9,120.2,66.9z"/>
	</g>
	<g>
		<linearGradient id="SVGID_3_" gradientUnits="userSpaceOnUse" x1="-22.1404" y1="16.9888" x2="73.386" y2="112.5152">
			<stop  offset="0" style="stop-color:#B2D3FD"/>
			<stop  offset="1" style="stop-color:#83B0F3"/>
		</linearGradient>
		<path class="st2" d="M29.2,55.4h-28c-0.6,0-1.1-0.5-1.1-1.1c0-0.6,0.5-1.1,1.1-1.1h28c0.6,0,1.1,0.5,1.1,1.1
			C30.3,54.9,29.8,55.4,29.2,55.4z"/>
	</g>
	<g>
		<linearGradient id="SVGID_4_" gradientUnits="userSpaceOnUse" x1="-27.8347" y1="22.6831" x2="67.6917" y2="118.2095">
			<stop  offset="0" style="stop-color:#B2D3FD"/>
			<stop  offset="1" style="stop-color:#83B0F3"/>
		</linearGradient>
		<path class="st3" d="M29.2,66.9H1.3c-0.6,0-1.1-0.5-1.1-1.1c0-0.6,0.5-1.1,1.1-1.1h27.9c0.6,0,1.1,0.5,1.1,1.1
			C30.3,66.4,29.8,66.9,29.2,66.9z"/>
	</g>
	
		<linearGradient id="SVGID_5_" gradientUnits="userSpaceOnUse" x1="195.5505" y1="60.0074" x2="223.1764" y2="60.0074" gradientTransform="matrix(-1 0 0 1 315.4413 0)">
		<stop  offset="0" style="stop-color:#D5E8FD;stop-opacity:0"/>
		<stop  offset="1" style="stop-color:#6EA9F9"/>
	</linearGradient>
	<rect x="91.2" y="55.4" class="st4" width="29.1" height="9.2"/>
	
		<linearGradient id="SVGID_6_" gradientUnits="userSpaceOnUse" x1="498.4062" y1="60.0074" x2="526.6947" y2="60.0074" gradientTransform="matrix(1 0 0 1 -497.3917 0)">
		<stop  offset="0" style="stop-color:#D5E8FD;stop-opacity:0"/>
		<stop  offset="1" style="stop-color:#6EA9F9"/>
	</linearGradient>
	<rect x="0.7" y="55.4" class="st5" width="29.8" height="9.2"/>
	
		<linearGradient id="SVGID_7_" gradientUnits="userSpaceOnUse" x1="271.8335" y1="-296.1823" x2="251.2913" y2="-296.1823" gradientTransform="matrix(0 -1 1 0 356.5025 273.2626)">
		<stop  offset="0" style="stop-color:#D5E8FD;stop-opacity:0"/>
		<stop  offset="1" style="stop-color:#6EA9F9"/>
	</linearGradient>
	<rect x="54.7" y="0.5" class="st6" width="11.2" height="29.6"/>
	
		<linearGradient id="SVGID_8_" gradientUnits="userSpaceOnUse" x1="385.8296" y1="-296.2506" x2="364.881" y2="-296.2506" gradientTransform="matrix(-4.489700e-11 1 1 4.489700e-11 356.5025 -266.2252)">
		<stop  offset="0" style="stop-color:#D5E8FD;stop-opacity:0"/>
		<stop  offset="1" style="stop-color:#6EA9F9"/>
	</linearGradient>
	<rect x="54.7" y="90.4" class="st7" width="11.1" height="30.2"/>
	<g>
		<linearGradient id="SVGID_9_" gradientUnits="userSpaceOnUse" x1="5.8472" y1="-33.2487" x2="130.3776" y2="91.2816">
			<stop  offset="0" style="stop-color:#B2D3FD"/>
			<stop  offset="1" style="stop-color:#83B0F3"/>
		</linearGradient>
		<path class="st8" d="M55.4,1.1v28c0,0.6-0.5,1.1-1.1,1.1c-0.6,0-1.1-0.5-1.1-1.1v-28c0-0.6,0.5-1.1,1.1-1.1
			C54.9,0,55.4,0.5,55.4,1.1z"/>
	</g>
	<g>
		<linearGradient id="SVGID_10_" gradientUnits="userSpaceOnUse" x1="11.9869" y1="-39.3884" x2="136.5173" y2="85.1419">
			<stop  offset="0" style="stop-color:#B2D3FD"/>
			<stop  offset="1" style="stop-color:#83B0F3"/>
		</linearGradient>
		<path class="st9" d="M67.6,1.1V29c0,0.6-0.5,1.1-1.1,1.1c-0.6,0-1.1-0.5-1.1-1.1V1.1c0-0.6,0.5-1.1,1.1-1.1
			C67.1,0,67.6,0.5,67.6,1.1z"/>
	</g>
	<g>
		<linearGradient id="SVGID_11_" gradientUnits="userSpaceOnUse" x1="-44.2933" y1="7.6418" x2="51.233" y2="103.1681">
			<stop  offset="0" style="stop-color:#B2D3FD"/>
			<stop  offset="1" style="stop-color:#83B0F3"/>
		</linearGradient>
		<path class="st10" d="M55.4,92.2v28c0,0.6-0.5,1.1-1.1,1.1c-0.6,0-1.1-0.5-1.1-1.1v-28c0-0.6,0.5-1.1,1.1-1.1
			C54.9,91,55.4,91.5,55.4,92.2z"/>
	</g>
	<g>
		<linearGradient id="SVGID_12_" gradientUnits="userSpaceOnUse" x1="-34.7784" y1="4.8769" x2="60.7479" y2="100.4032">
			<stop  offset="0" style="stop-color:#B2D3FD"/>
			<stop  offset="0.4802" style="stop-color:#8FB9F6"/>
			<stop  offset="1" style="stop-color:#83B0F3"/>
		</linearGradient>
		<path class="st11" d="M67.6,92.2v27.9c0,0.6-0.5,1.1-1.1,1.1c-0.6,0-1.1-0.5-1.1-1.1V92.2c0-0.6,0.5-1.1,1.1-1.1
			C67.1,91,67.6,91.5,67.6,92.2z"/>
	</g>
	<linearGradient id="SVGID_13_" gradientUnits="userSpaceOnUse" x1="4.1295" y1="37.3023" x2="64.1686" y2="97.3414">
		<stop  offset="0" style="stop-color:#B2D3FD"/>
		<stop  offset="1" style="stop-color:#83B0F3"/>
	</linearGradient>
	<path class="st12" d="M68.6,91.6c0,10.7-17,10.2-17,0C58.7,91.6,68.6,91.6,68.6,91.6z"/>
	<linearGradient id="SVGID_14_" gradientUnits="userSpaceOnUse" x1="37.1158" y1="4.816" x2="97.155" y2="64.8551">
		<stop  offset="0" style="stop-color:#B2D3FD"/>
		<stop  offset="1" style="stop-color:#83B0F3"/>
	</linearGradient>
	<path class="st13" d="M68.6,29.4c0-10.7-17-10.2-17,0C58.7,29.4,68.6,29.4,68.6,29.4z"/>
	<linearGradient id="SVGID_15_" gradientUnits="userSpaceOnUse" x1="7.5933" y1="40.8385" x2="67.6324" y2="100.8776">
		<stop  offset="0" style="stop-color:#B2D3FD"/>
		<stop  offset="1" style="stop-color:#83B0F3"/>
	</linearGradient>
	<path class="st14" d="M29,69c-10.7,0-10.2-17,0-17C29,59.2,29,69,29,69z"/>
	<linearGradient id="SVGID_16_" gradientUnits="userSpaceOnUse" x1="42.2046" y1="9.9772" x2="102.2437" y2="70.0163">
		<stop  offset="0" style="stop-color:#B2D3FD"/>
		<stop  offset="1" style="stop-color:#83B0F3"/>
	</linearGradient>
	<path class="st15" d="M91.2,69c10.7,0,10.2-17,0-17C91.2,59.2,91.2,69,91.2,69z"/>
	<linearGradient id="SVGID_17_" gradientUnits="userSpaceOnUse" x1="36.4123" y1="37.0402" x2="83.7885" y2="84.4164">
		<stop  offset="0" style="stop-color:#B4D3FD"/>
		<stop  offset="1" style="stop-color:#84B0F3"/>
	</linearGradient>
	<path class="st16" d="M93.5,60.7c0,1.4-0.1,2.8-0.2,4.1c-2,16.5-16.1,29.4-33.2,29.4c-17.1,0-31.2-12.8-33.2-29.4
		c-0.2-1.3-0.2-2.7-0.2-4.1c0-1.8,0.1-3.5,0.4-5.2c2.5-16,16.3-28.3,33-28.3c16.7,0,30.6,12.3,33,28.3
		C93.4,57.2,93.5,58.9,93.5,60.7z"/>
	<path class="st17" d="M93.5,60.7c0,1.4-0.1,2.8-0.2,4.1H26.9c-0.2-1.3-0.2-2.7-0.2-4.1c0-1.8,0.1-3.5,0.4-5.2h66.1
		C93.4,57.2,93.5,58.9,93.5,60.7z"/>
	<circle class="st17" cx="60.1" cy="60.7" r="17.8"/>
	<g>
		<g>
			<linearGradient id="SVGID_18_" gradientUnits="userSpaceOnUse" x1="33.5222" y1="40.4096" x2="79.1566" y2="86.0441">
				<stop  offset="0" style="stop-color:#84B4F5"/>
				<stop  offset="1" style="stop-color:#669AEC"/>
			</linearGradient>
			<path class="st18" d="M53.6,69.2c-0.3,0-0.6-0.1-0.8-0.4l-6.6-7.8l7-8.3c0.4-0.4,1-0.5,1.5-0.1c0.4,0.4,0.5,1,0.1,1.5l-5.9,7
				l5.5,6.5c0.4,0.4,0.3,1.1-0.1,1.5C54.1,69.1,53.8,69.2,53.6,69.2z"/>
		</g>
		<g>
			<linearGradient id="SVGID_19_" gradientUnits="userSpaceOnUse" x1="39.779" y1="34.1528" x2="85.4134" y2="79.7872">
				<stop  offset="0" style="stop-color:#84B4F5"/>
				<stop  offset="1" style="stop-color:#669AEC"/>
			</linearGradient>
			<path class="st19" d="M66.5,69.2c-0.2,0-0.5-0.1-0.7-0.2c-0.4-0.4-0.5-1-0.1-1.5l5.5-6.5l-5.9-7c-0.4-0.4-0.3-1.1,0.1-1.5
				c0.4-0.4,1.1-0.3,1.5,0.1l7,8.3l-6.6,7.8C67.1,69,66.8,69.2,66.5,69.2z"/>
		</g>
		<g>
			<linearGradient id="SVGID_20_" gradientUnits="userSpaceOnUse" x1="36.5068" y1="37.425" x2="82.1412" y2="83.0594">
				<stop  offset="0" style="stop-color:#84B4F5"/>
				<stop  offset="1" style="stop-color:#669AEC"/>
			</linearGradient>
			<path class="st20" d="M57.8,71.1c-0.1,0-0.1,0-0.2,0c-0.6-0.1-0.9-0.7-0.8-1.2l3.9-18.7c0.1-0.6,0.7-0.9,1.2-0.8
				c0.6,0.1,0.9,0.7,0.8,1.2l-3.9,18.7C58.7,70.7,58.3,71.1,57.8,71.1z"/>
		</g>
	</g>
</g>
</svg>
