<?xml version="1.0" encoding="utf-8"?>
<!-- Generator: Adobe Illustrator 22.0.1, SVG Export Plug-In . SVG Version: 6.00 Build 0)  -->
<svg version="1.1" id="Layer_1" xmlns="http://www.w3.org/2000/svg" xmlns:xlink="http://www.w3.org/1999/xlink" x="0px" y="0px"
	 viewBox="0 0 121.4 121.4" style="enable-background:new 0 0 121.4 121.4;" xml:space="preserve">
<style type="text/css">
	.st0{fill:url(#SVGID_1_);}
	.st1{fill:url(#SVGID_2_);}
	.st2{fill:url(#SVGID_3_);}
	.st3{fill:url(#SVGID_4_);}
	.st4{opacity:0.22;fill:url(#SVGID_5_);}
	.st5{fill:url(#SVGID_6_);}
	.st6{fill:#FFFFFF;}
	.st7{fill:url(#SVGID_7_);}
	.st8{fill:url(#SVGID_8_);}
	.st9{fill:url(#SVGID_9_);}
</style>
<g>
	<linearGradient id="SVGID_1_" gradientUnits="userSpaceOnUse" x1="38.6082" y1="-13.3218" x2="139.115" y2="87.185">
		<stop  offset="0" style="stop-color:#B4D3FD"/>
		<stop  offset="1" style="stop-color:#84B0F3"/>
	</linearGradient>
	<path class="st0" d="M53.2,10h15.1c1.1,0,1.6-1.3,0.9-2.1l-7.5-7.5c-0.5-0.5-1.3-0.5-1.7,0l-7.5,7.5C51.5,8.7,52.1,10,53.2,10z"/>
	<linearGradient id="SVGID_2_" gradientUnits="userSpaceOnUse" x1="-13.3218" y1="38.6082" x2="87.185" y2="139.115">
		<stop  offset="0" style="stop-color:#B4D3FD"/>
		<stop  offset="1" style="stop-color:#84B0F3"/>
	</linearGradient>
	<path class="st1" d="M53.2,111.4h15.1c1.1,0,1.6,1.3,0.9,2.1l-7.5,7.5c-0.5,0.5-1.3,0.5-1.7,0l-7.5-7.5
		C51.5,112.7,52.1,111.4,53.2,111.4z"/>
	<linearGradient id="SVGID_3_" gradientUnits="userSpaceOnUse" x1="38.6082" y1="-13.3218" x2="139.115" y2="87.185">
		<stop  offset="0" style="stop-color:#B4D3FD"/>
		<stop  offset="1" style="stop-color:#84B0F3"/>
	</linearGradient>
	<path class="st2" d="M111.4,53.2v15.1c0,1.1,1.3,1.6,2.1,0.9l7.5-7.5c0.5-0.5,0.5-1.3,0-1.7l-7.5-7.5
		C112.7,51.5,111.4,52.1,111.4,53.2z"/>
	<linearGradient id="SVGID_4_" gradientUnits="userSpaceOnUse" x1="-13.3218" y1="38.6082" x2="87.185" y2="139.115">
		<stop  offset="0" style="stop-color:#B4D3FD"/>
		<stop  offset="1" style="stop-color:#84B0F3"/>
	</linearGradient>
	<path class="st3" d="M10,53.2v15.1c0,1.1-1.3,1.6-2.1,0.9l-7.5-7.5c-0.5-0.5-0.5-1.3,0-1.7l7.5-7.5C8.7,51.5,10,52.1,10,53.2z"/>
	<g>
		<linearGradient id="SVGID_5_" gradientUnits="userSpaceOnUse" x1="30.6717" y1="30.6046" x2="90.8568" y2="90.7897">
			<stop  offset="0" style="stop-color:#B2D3FD"/>
			<stop  offset="1" style="stop-color:#83B0F3"/>
		</linearGradient>
		<path class="st4" d="M103.2,60.7c0,1.4-0.1,2.8-0.2,4.1c0,0.4-0.1,0.7-0.1,1.1c-2.5,21-20.5,37.3-42.2,37.3
			c-21.7,0-39.6-16.3-42.2-37.3c0-0.4-0.1-0.7-0.1-1.1c-0.1-1.3-0.2-2.7-0.2-4.1c0-1.8,0.1-3.5,0.3-5.1c0.1-0.5,0.1-0.9,0.2-1.4
			c3.1-20.3,20.8-36,42-36c21.2,0,38.8,15.6,42,36c0.1,0.5,0.1,0.9,0.2,1.4C103.1,57.2,103.2,58.9,103.2,60.7z"/>
		<linearGradient id="SVGID_6_" gradientUnits="userSpaceOnUse" x1="37.0642" y1="37.0011" x2="84.4403" y2="84.3773">
			<stop  offset="0" style="stop-color:#B4D3FD"/>
			<stop  offset="1" style="stop-color:#84B0F3"/>
		</linearGradient>
		<path class="st5" d="M94.2,60.7c0,1.4-0.1,2.8-0.2,4.1c-2,16.5-16.1,29.4-33.2,29.4c-17.1,0-31.2-12.8-33.2-29.4
			c-0.2-1.3-0.2-2.7-0.2-4.1c0-1.8,0.1-3.5,0.4-5.1c2.5-16,16.3-28.3,33-28.3c16.7,0,30.6,12.3,33.1,28.3
			C94,57.2,94.2,58.9,94.2,60.7z"/>
		<path class="st6" d="M103.2,60.7c0,1.4-0.1,2.8-0.2,4.1H18.4c-0.1-1.3-0.2-2.7-0.2-4.1c0-1.8,0.1-3.5,0.3-5.1h84.4
			C103.1,57.2,103.2,58.9,103.2,60.7z"/>
		<circle class="st6" cx="60.7" cy="60.7" r="17.8"/>
		<g>
			<linearGradient id="SVGID_7_" gradientUnits="userSpaceOnUse" x1="33.1402" y1="41.4061" x2="80.0411" y2="88.307">
				<stop  offset="0" style="stop-color:#B2D3FD"/>
				<stop  offset="1" style="stop-color:#83B0F3"/>
			</linearGradient>
			<circle class="st7" cx="52.2" cy="60.5" r="2.9"/>
			<linearGradient id="SVGID_8_" gradientUnits="userSpaceOnUse" x1="37.3843" y1="37.162" x2="84.2852" y2="84.0629">
				<stop  offset="0" style="stop-color:#B2D3FD"/>
				<stop  offset="1" style="stop-color:#83B0F3"/>
			</linearGradient>
			<circle class="st8" cx="60.7" cy="60.5" r="2.9"/>
			<linearGradient id="SVGID_9_" gradientUnits="userSpaceOnUse" x1="41.6283" y1="32.9179" x2="88.5292" y2="79.8189">
				<stop  offset="0" style="stop-color:#B2D3FD"/>
				<stop  offset="1" style="stop-color:#83B0F3"/>
			</linearGradient>
			<circle class="st9" cx="69.2" cy="60.5" r="2.9"/>
		</g>
	</g>
</g>
</svg>
