<?xml version="1.0" encoding="utf-8"?>
<!-- Generator: Adobe Illustrator 22.0.1, SVG Export Plug-In . SVG Version: 6.00 Build 0)  -->
<svg version="1.1" id="Layer_1" xmlns="http://www.w3.org/2000/svg" xmlns:xlink="http://www.w3.org/1999/xlink" x="0px" y="0px"
	 viewBox="0 0 121.4 121.4" style="enable-background:new 0 0 121.4 121.4;" xml:space="preserve">
<style type="text/css">
	.st0{fill:#FFFFFF;}
	.st1{fill:url(#SVGID_1_);}
	.st2{fill:url(#SVGID_2_);}
	.st3{fill:url(#SVGID_3_);}
	.st4{fill:url(#SVGID_4_);}
	.st5{fill:url(#SVGID_5_);}
	.st6{fill:url(#SVGID_6_);}
	.st7{fill:url(#SVGID_7_);}
	.st8{fill:url(#SVGID_8_);}
	.st9{fill:url(#SVGID_9_);}
</style>
<path class="st0" d="M94.2,61.1c0,1.4-0.1,2.7-0.3,4.1H27.5c-0.2-1.3-0.3-2.7-0.3-4.1c0-1.7,0.1-3.5,0.4-5.1h66.1
	C94,57.7,94.2,59.4,94.2,61.1z"/>
<linearGradient id="SVGID_1_" gradientUnits="userSpaceOnUse" x1="36.9335" y1="37.3529" x2="85.5771" y2="85.9965">
	<stop  offset="0" style="stop-color:#B4D3FD"/>
	<stop  offset="1" style="stop-color:#84B0F3"/>
</linearGradient>
<ellipse class="st1" cx="60.7" cy="61.1" rx="33.5" ry="33.5"/>
<ellipse class="st0" cx="60.7" cy="61.1" rx="17.8" ry="17.8"/>
<linearGradient id="SVGID_2_" gradientUnits="userSpaceOnUse" x1="53.2176" y1="53.6373" x2="68.4754" y2="68.8951">
	<stop  offset="0" style="stop-color:#B4D3FD"/>
	<stop  offset="1" style="stop-color:#84B0F3"/>
</linearGradient>
<path class="st2" d="M69.7,61.1c0-1,0.6-1.9,1.5-2.4c0.5-0.3,0.8-0.9,0.6-1.4c-0.1-0.4-0.3-0.8-0.5-1.2c-0.3-0.5-0.9-0.8-1.5-0.6
	c-0.9,0.3-2,0.1-2.7-0.7c-0.7-0.7-1-1.8-0.7-2.8c0.2-0.5-0.1-1.1-0.6-1.4c-0.4-0.2-0.8-0.4-1.2-0.5c-0.6-0.2-1.2,0.1-1.4,0.6
	c-0.4,0.9-1.3,1.4-2.4,1.4c-1,0-1.9-0.6-2.4-1.4c-0.3-0.5-0.9-0.8-1.5-0.6c-0.4,0.1-0.8,0.3-1.2,0.5c-0.5,0.3-0.8,0.9-0.6,1.4
	c0.3,0.9,0.1,2-0.6,2.8c-0.7,0.7-1.8,1-2.8,0.6c-0.5-0.2-1.2,0.1-1.4,0.6c-0.2,0.4-0.4,0.8-0.5,1.2c-0.2,0.6,0.1,1.2,0.6,1.4
	c0.9,0.5,1.5,1.4,1.5,2.4s-0.6,1.9-1.5,2.4c-0.5,0.3-0.8,0.9-0.6,1.4c0.1,0.4,0.3,0.8,0.5,1.2c0.3,0.5,0.9,0.8,1.4,0.6
	c0.9-0.3,2-0.1,2.8,0.6c0.7,0.7,1,1.8,0.6,2.8c-0.2,0.5,0.1,1.1,0.6,1.4c0.4,0.2,0.8,0.4,1.2,0.5c0.6,0.2,1.2-0.1,1.5-0.6
	c0.4-0.9,1.3-1.4,2.4-1.4c1,0,1.9,0.6,2.4,1.4c0.3,0.5,0.9,0.8,1.4,0.6c0.4-0.1,0.8-0.3,1.2-0.5c0.5-0.2,0.8-0.9,0.6-1.4
	c-0.3-0.9-0.1-2,0.7-2.8c0.7-0.7,1.8-1,2.7-0.7c0.6,0.2,1.2-0.1,1.5-0.6c0.2-0.4,0.4-0.8,0.5-1.2c0.2-0.6-0.1-1.2-0.6-1.4
	C70.2,63.1,69.7,62.2,69.7,61.1z M60.7,66.3c-2.8,0-5.2-2.3-5.2-5.1s2.3-5.1,5.2-5.1c2.9,0,5.2,2.3,5.2,5.1S63.6,66.3,60.7,66.3z"/>
<linearGradient id="SVGID_3_" gradientUnits="userSpaceOnUse" x1="-108.4499" y1="-108.0117" x2="184.2657" y2="184.7039">
	<stop  offset="0" style="stop-color:#D9E9FF"/>
	<stop  offset="1" style="stop-color:#B2CEF7"/>
</linearGradient>
<path class="st3" d="M89.8,44.6C89.8,44.6,89.8,44.6,89.8,44.6c0.6,1.1,1.2,2.2,1.7,3.3c0.1,0.2,0.2,0.4,0.2,0.5c0,0,0,0,0,0
	c16.3,8.7,29.1,20.3,26.9,28.2c-2.3,8.3-17.4,12.1-37,10.7c0,0-0.1,0-0.1,0c-8.3-0.6-17.5-2.2-26.8-4.8C45.4,80,36.8,76.7,29.4,73
	c-0.1,0-0.1-0.1-0.2-0.1C11.6,64.1,0.5,53.1,2.8,44.7C5.1,36.6,22,32.9,41,34.1c1.1-0.8,2.3-1.6,3.5-2.2c0,0,0.1,0,0.1-0.1
	C22.4,29.7,3.2,34,0.4,44.1C-2.4,54.3,10.1,67,30.9,76.6c0,0,0.1,0,0.1,0.1c6.8,3.2,14.6,6,22.9,8.3c8.4,2.3,16.5,3.8,24.1,4.6
	c0.1,0,0.1,0,0.2,0c22.7,2.3,39.9-2.1,42.7-12.3C123.7,67.5,109.3,54.1,89.8,44.6z"/>
<linearGradient id="SVGID_4_" gradientUnits="userSpaceOnUse" x1="-16.7874" y1="44.1363" x2="75.8543" y2="136.7781">
	<stop  offset="0" style="stop-color:#D9E9FF"/>
	<stop  offset="1" style="stop-color:#B2CEF7"/>
</linearGradient>
<path class="st4" d="M59.1,94.5c-5.7,3.9-11.6,7.4-16.9,9.7c-8.5,3.6-15.6,4.7-20.7,3.3c-2.1-0.6-3.9-1.6-5.3-3
	c-4.9-4.9-4.7-14.2,0.7-26c2.5-5.5,5.9-11.3,10.2-17.2c0.1-0.2,0.2-0.3,0.3-0.5c0,0.1,0,0.2,0,0.3c0,1.3,0.1,2.5,0.2,3.8
	c-0.1,0.1-0.1,0.2-0.2,0.3c-3.3,4.9-6.1,9.7-8.2,14.2c-4.8,10.6-5.2,19.1-1.2,23.2c4,4.1,12.5,3.8,23.3-0.8c4.4-1.9,9.4-4.7,14-7.8
	C56.5,94.3,57.8,94.5,59.1,94.5z"/>
<linearGradient id="SVGID_5_" gradientUnits="userSpaceOnUse" x1="26.4003" y1="0.9486" x2="119.0421" y2="93.5903">
	<stop  offset="0" style="stop-color:#D9E9FF"/>
	<stop  offset="1" style="stop-color:#B2CEF7"/>
</linearGradient>
<path class="st5" d="M107.5,35.2c-2,7.2-7.1,16.6-13.4,25.4c0-0.3,0-0.6,0-1c0-0.1,0-0.1,0-0.2c0-1-0.1-2-0.3-3c0,0,0,0,0,0
	c10.8-16.1,15.7-31.7,9.7-37.8c-1.1-1.1-2.5-1.9-4.2-2.4c-7.4-2-20,2.2-33.4,11.1c-0.3,0.2-0.5,0.4-0.8,0.5h0
	c-6.7,4.5-13.7,10.1-20.3,16.6C38.1,51.1,32.2,58,27.5,64.9c0,0,0,0,0,0c-0.1-1.2-0.2-2.5-0.2-3.8c0-0.1,0-0.2,0-0.3v0
	c4.5-6.1,9.8-12.2,15.7-18c5.9-5.8,12-10.9,17.9-15.1c0.3-0.2,0.6-0.4,0.9-0.6c18.8-13.1,36-17.6,43.5-10.1
	C109.1,20.9,109.7,27.3,107.5,35.2z"/>
<linearGradient id="SVGID_6_" gradientUnits="userSpaceOnUse" x1="-48.7641" y1="141.4005" x2="52.28" y2="242.4447" gradientTransform="matrix(0.9638 0.2666 -0.2666 0.9638 75.7691 -106.8207)">
	<stop  offset="0" style="stop-color:#D9E9FF"/>
	<stop  offset="1" style="stop-color:#B2CEF7"/>
</linearGradient>
<ellipse class="st6" cx="40.4" cy="103.6" rx="3.8" ry="3.8"/>
<linearGradient id="SVGID_7_" gradientUnits="userSpaceOnUse" x1="-76.0094" y1="124.574" x2="25.0348" y2="225.6181" gradientTransform="matrix(0.9638 0.2666 -0.2666 0.9638 75.7691 -106.8207)">
	<stop  offset="0" style="stop-color:#D9E9FF"/>
	<stop  offset="1" style="stop-color:#B2CEF7"/>
</linearGradient>
<ellipse class="st7" cx="5.6" cy="57" rx="3.8" ry="3.8"/>
<linearGradient id="SVGID_8_" gradientUnits="userSpaceOnUse" x1="0.9832" y1="22.6157" x2="95.9654" y2="117.5979">
	<stop  offset="0" style="stop-color:#D9E9FF"/>
	<stop  offset="1" style="stop-color:#B2CEF7"/>
</linearGradient>
<path class="st8" d="M89.3,98.4c-1.6,12.9-6.1,20.9-12.8,22.6c-2,0.5-4.1,0.5-6.2-0.1c-8.7-2.4-18.7-14.4-26.1-30.7
	c1.2,0.7,2.5,1.3,3.8,1.8c6.9,13.9,15.8,24.4,23,26.4c1.7,0.5,3.3,0.5,4.9,0.1c5.6-1.4,9.6-8.9,11-20.5c0.6-5,0.7-10.5,0.3-16.4v0
	c0.8-1.1,1.6-2.2,2.3-3.3c0,0,0,0.1,0,0.1C90,85.6,90,92.4,89.3,98.4z"/>
<linearGradient id="SVGID_9_" gradientUnits="userSpaceOnUse" x1="22.337" y1="1.2619" x2="117.3193" y2="96.2441">
	<stop  offset="0" style="stop-color:#D9E9FF"/>
	<stop  offset="1" style="stop-color:#B2CEF7"/>
</linearGradient>
<path class="st9" d="M87.1,81.7L87.1,81.7c-0.5-8.4-2-17.5-4.4-26.7c-0.7-2.6-1.4-5.1-2.2-7.6c-0.3,0-0.6,0-0.9-0.1
	c-2-0.6-3.2-2.7-2.7-4.7c0.2-0.8,0.6-1.4,1.2-1.9c-1.3-3.6-2.8-7.1-4.3-10.4c-0.1-0.3-0.3-0.6-0.4-0.9C64.9,11.8,54,0.6,45.6,2.8
	c-8.1,2.1-12.1,19-11.3,37.8c0,0,0,0,0,0c-0.1,0.2-0.3,0.3-0.4,0.5c-0.1,0.2-0.3,0.4-0.4,0.6c-0.2,0.3-0.4,0.5-0.6,0.8
	c-0.3,0.5-0.6,1-0.9,1.5c0,0,0,0.1-0.1,0.1v0C30.3,22.2,35,2.9,45,0.4c2-0.5,4-0.5,6.2,0.1c8.8,2.4,18.4,14,25.9,30.8
	c0.1,0.3,0.3,0.6,0.4,0.9l0,0c1.1,2.5,2.1,5,3.1,7.6c0.4,0,0.7,0,1.1,0.1c2,0.6,3.2,2.7,2.7,4.7c-0.2,0.9-0.8,1.5-1.4,2
	c0.8,2.5,1.5,5.1,2.2,7.7c2.2,8.2,3.6,16.3,4.2,24C88.7,79.5,87.9,80.6,87.1,81.7z"/>
</svg>
