<?xml version="1.0" encoding="utf-8"?>
<!-- Generator: Adobe Illustrator 22.0.1, SVG Export Plug-In . SVG Version: 6.00 Build 0)  -->
<svg version="1.1" id="Layer_1" xmlns="http://www.w3.org/2000/svg" xmlns:xlink="http://www.w3.org/1999/xlink" x="0px" y="0px"
	 viewBox="0 0 121.4 121.4" style="enable-background:new 0 0 121.4 121.4;" xml:space="preserve">
<style type="text/css">
	.st0{fill:url(#SVGID_1_);}
	.st1{fill:url(#SVGID_2_);}
	.st2{fill:url(#SVGID_3_);}
	.st3{fill:url(#SVGID_4_);}
	.st4{fill:url(#SVGID_5_);}
	.st5{fill:url(#SVGID_6_);}
	.st6{fill:url(#SVGID_7_);}
	.st7{fill:url(#SVGID_8_);}
	.st8{fill:url(#SVGID_9_);}
	.st9{fill:url(#SVGID_10_);}
	.st10{fill:url(#SVGID_11_);}
	.st11{fill:url(#SVGID_12_);}
	.st12{fill:url(#SVGID_13_);}
	.st13{fill:#FFFFFF;}
	.st14{opacity:0.8;fill:url(#SVGID_14_);}
	.st15{fill:url(#SVGID_15_);}
	.st16{fill:url(#SVGID_16_);}
	.st17{fill:url(#SVGID_17_);}
</style>
<g>
	<g>
		<linearGradient id="SVGID_1_" gradientUnits="userSpaceOnUse" x1="-15.2146" y1="38.2309" x2="78.1352" y2="142.6479">
			<stop  offset="0" style="stop-color:#B7D5FD"/>
			<stop  offset="1" style="stop-color:#88B2F3"/>
		</linearGradient>
		<circle class="st0" cx="4.9" cy="60.7" r="4.9"/>
		<linearGradient id="SVGID_2_" gradientUnits="userSpaceOnUse" x1="43.5516" y1="-14.3066" x2="136.9013" y2="90.1104">
			<stop  offset="0" style="stop-color:#B7D5FD"/>
			<stop  offset="1" style="stop-color:#88B2F3"/>
		</linearGradient>
		<circle class="st1" cx="60.7" cy="4.9" r="4.9"/>
		<linearGradient id="SVGID_3_" gradientUnits="userSpaceOnUse" x1="-11.926" y1="35.2909" x2="81.4238" y2="139.7079">
			<stop  offset="0" style="stop-color:#B7D5FD"/>
			<stop  offset="1" style="stop-color:#88B2F3"/>
		</linearGradient>
		<circle class="st2" cx="60.7" cy="116.5" r="4.9"/>
		<linearGradient id="SVGID_4_" gradientUnits="userSpaceOnUse" x1="46.8402" y1="-17.2466" x2="140.1899" y2="87.1704">
			<stop  offset="0" style="stop-color:#B7D5FD"/>
			<stop  offset="1" style="stop-color:#88B2F3"/>
		</linearGradient>
		<circle class="st3" cx="116.5" cy="60.7" r="4.9"/>
		<linearGradient id="SVGID_5_" gradientUnits="userSpaceOnUse" x1="56.5527" y1="-25.9297" x2="149.9025" y2="78.4873">
			<stop  offset="0" style="stop-color:#B7D5FD"/>
			<stop  offset="1" style="stop-color:#88B2F3"/>
		</linearGradient>
		<circle class="st4" cx="109" cy="32.8" r="2.4"/>
		<linearGradient id="SVGID_6_" gradientUnits="userSpaceOnUse" x1="-24.9271" y1="46.914" x2="68.4227" y2="151.331">
			<stop  offset="0" style="stop-color:#B7D5FD"/>
			<stop  offset="1" style="stop-color:#88B2F3"/>
		</linearGradient>
		<circle class="st5" cx="12.3" cy="88.6" r="2.4"/>
		<linearGradient id="SVGID_7_" gradientUnits="userSpaceOnUse" x1="55.349" y1="-24.8535" x2="148.6987" y2="79.5634">
			<stop  offset="0" style="stop-color:#B7D5FD"/>
			<stop  offset="1" style="stop-color:#88B2F3"/>
		</linearGradient>
		<circle class="st6" cx="88.6" cy="12.3" r="2.4"/>
		<linearGradient id="SVGID_8_" gradientUnits="userSpaceOnUse" x1="-23.7234" y1="45.8379" x2="69.6264" y2="150.2549">
			<stop  offset="0" style="stop-color:#B7D5FD"/>
			<stop  offset="1" style="stop-color:#88B2F3"/>
		</linearGradient>
		<circle class="st7" cx="32.8" cy="109" r="2.4"/>
		<linearGradient id="SVGID_9_" gradientUnits="userSpaceOnUse" x1="24.3216" y1="2.8852" x2="117.6713" y2="107.3022">
			<stop  offset="0" style="stop-color:#B7D5FD"/>
			<stop  offset="1" style="stop-color:#88B2F3"/>
		</linearGradient>
		<circle class="st8" cx="32.8" cy="12.3" r="2.4"/>
		<linearGradient id="SVGID_10_" gradientUnits="userSpaceOnUse" x1="7.304" y1="18.0991" x2="100.6538" y2="122.5161">
			<stop  offset="0" style="stop-color:#B7D5FD"/>
			<stop  offset="1" style="stop-color:#88B2F3"/>
		</linearGradient>
		<circle class="st9" cx="88.6" cy="109" r="2.4"/>
		<linearGradient id="SVGID_11_" gradientUnits="userSpaceOnUse" x1="2.8117" y1="22.1153" x2="96.1614" y2="126.5323">
			<stop  offset="0" style="stop-color:#B7D5FD"/>
			<stop  offset="1" style="stop-color:#88B2F3"/>
		</linearGradient>
		<circle class="st10" cx="12.3" cy="32.8" r="2.4"/>
		<linearGradient id="SVGID_12_" gradientUnits="userSpaceOnUse" x1="28.8139" y1="-1.131" x2="122.1637" y2="103.286">
			<stop  offset="0" style="stop-color:#B7D5FD"/>
			<stop  offset="1" style="stop-color:#88B2F3"/>
		</linearGradient>
		<circle class="st11" cx="109" cy="88.6" r="2.4"/>
	</g>
	<g>
		<g>
			<linearGradient id="SVGID_13_" gradientUnits="userSpaceOnUse" x1="37.042" y1="37.1946" x2="84.4182" y2="84.5708">
				<stop  offset="0" style="stop-color:#B4D3FD"/>
				<stop  offset="1" style="stop-color:#84B0F3"/>
			</linearGradient>
			<path class="st12" d="M94.1,60.8c0,1.4-0.1,2.8-0.2,4.1c-2,16.5-16.1,29.4-33.2,29.4c-17.1,0-31.2-12.8-33.2-29.4
				c-0.2-1.3-0.2-2.7-0.2-4.1c0-1.8,0.1-3.5,0.4-5.1c2.5-16,16.3-28.3,33-28.3c16.7,0,30.6,12.3,33,28.3
				C94,57.4,94.1,59.1,94.1,60.8z"/>
			<path class="st13" d="M94.1,60.8c0,1.4-0.1,2.8-0.2,4.1H27.5c-0.2-1.3-0.2-2.7-0.2-4.1c0-1.8,0.1-3.5,0.4-5.1h66.1
				C94,57.4,94.1,59.1,94.1,60.8z"/>
			<circle class="st13" cx="60.7" cy="60.8" r="17.8"/>
		</g>
		<linearGradient id="SVGID_14_" gradientUnits="userSpaceOnUse" x1="45.9195" y1="68.184" x2="75.2574" y2="68.184">
			<stop  offset="0" style="stop-color:#B2D3FD"/>
			<stop  offset="1" style="stop-color:#83B0F3"/>
		</linearGradient>
		<path class="st14" d="M75.3,60.8L75.3,60.8c0,8.1-6.6,14.7-14.7,14.7c-8.1,0-14.7-6.6-14.7-14.7v0H75.3z"/>
		<g>
			<g>
				<g>
					<linearGradient id="SVGID_15_" gradientUnits="userSpaceOnUse" x1="29.905" y1="23.2254" x2="52.2656" y2="45.5861">
						<stop  offset="0" style="stop-color:#84B4F5"/>
						<stop  offset="1" style="stop-color:#669AEC"/>
					</linearGradient>
					<path class="st15" d="M60.6,61.7c-0.5,0-0.9-0.4-0.9-0.9V47c0-0.5,0.4-0.9,0.9-0.9c0.5,0,0.9,0.4,0.9,0.9v13.9
						C61.4,61.3,61.1,61.7,60.6,61.7z"/>
				</g>
				<g>
					<linearGradient id="SVGID_16_" gradientUnits="userSpaceOnUse" x1="28.8962" y1="24.2342" x2="51.2569" y2="46.5949">
						<stop  offset="0" style="stop-color:#84B4F5"/>
						<stop  offset="1" style="stop-color:#669AEC"/>
					</linearGradient>
					<path class="st16" d="M70.4,61.7h-9.8c-0.5,0-0.9-0.4-0.9-0.9s0.4-0.9,0.9-0.9h9.8c0.5,0,0.9,0.4,0.9,0.9S70.9,61.7,70.4,61.7z
						"/>
				</g>
			</g>
			<linearGradient id="SVGID_17_" gradientUnits="userSpaceOnUse" x1="26.541" y1="26.5894" x2="48.9017" y2="48.9501">
				<stop  offset="0" style="stop-color:#84B4F5"/>
				<stop  offset="1" style="stop-color:#669AEC"/>
			</linearGradient>
			<circle class="st17" cx="60.7" cy="60.7" r="1.6"/>
		</g>
	</g>
</g>
</svg>
