<?xml version="1.0" encoding="utf-8"?>
<!-- Generator: Adobe Illustrator 22.0.1, SVG Export Plug-In . SVG Version: 6.00 Build 0)  -->
<svg version="1.1" id="Layer_1" xmlns="http://www.w3.org/2000/svg" xmlns:xlink="http://www.w3.org/1999/xlink" x="0px" y="0px"
	 viewBox="0 0 121.4 121.4" style="enable-background:new 0 0 121.4 121.4;" xml:space="preserve">
<style type="text/css">
	.st0{fill:url(#SVGID_1_);}
	.st1{fill:#FFFFFF;}
	.st2{fill:url(#SVGID_2_);}
	.st3{fill:url(#SVGID_3_);}
	.st4{fill:url(#SVGID_4_);}
	.st5{opacity:0.8;}
	.st6{fill:url(#SVGID_5_);}
	.st7{fill:url(#SVGID_6_);}
	.st8{fill:url(#SVGID_7_);}
	.st9{fill:url(#SVGID_8_);}
	.st10{fill:url(#SVGID_9_);}
	.st11{fill:url(#SVGID_10_);}
	.st12{fill:url(#SVGID_11_);}
	.st13{opacity:0.8;fill:url(#SVGID_12_);}
	.st14{fill:url(#SVGID_13_);}
</style>
<g>
	<g>
		<linearGradient id="SVGID_1_" gradientUnits="userSpaceOnUse" x1="36.9551" y1="37.0396" x2="84.3329" y2="84.4174">
			<stop  offset="0" style="stop-color:#B4D3FD"/>
			<stop  offset="1" style="stop-color:#84B0F3"/>
		</linearGradient>
		<path class="st0" d="M94.1,60.7c0,1.4-0.1,2.8-0.2,4.1c-2,16.5-16.1,29.4-33.2,29.4c-17.1,0-31.2-12.8-33.2-29.4
			c-0.2-1.3-0.2-2.7-0.2-4.1c0-1.8,0.1-3.5,0.4-5.2c2.5-16,16.3-28.3,33-28.3c16.7,0,30.6,12.3,33,28.3
			C93.9,57.2,94.1,58.9,94.1,60.7z"/>
		<path class="st1" d="M94.1,60.7c0,1.4-0.1,2.8-0.2,4.1H27.4c-0.2-1.3-0.2-2.7-0.2-4.1c0-1.8,0.1-3.5,0.4-5.2h66.1
			C93.9,57.2,94.1,58.9,94.1,60.7z"/>
		<circle class="st1" cx="60.6" cy="60.7" r="17.8"/>
		<linearGradient id="SVGID_2_" gradientUnits="userSpaceOnUse" x1="53.0955" y1="53.1826" x2="67.6566" y2="67.7438">
			<stop  offset="0" style="stop-color:#B4D3FD"/>
			<stop  offset="1" style="stop-color:#84B0F3"/>
		</linearGradient>
		<circle class="st2" cx="60.6" cy="60.7" r="10.3"/>
	</g>
	<g>
		<linearGradient id="SVGID_3_" gradientUnits="userSpaceOnUse" x1="45.071" y1="110.0847" x2="79.9942" y2="121.4986">
			<stop  offset="0" style="stop-color:#B4D3FD"/>
			<stop  offset="1" style="stop-color:#84B0F3"/>
		</linearGradient>
		<ellipse class="st3" cx="61" cy="115.3" rx="42.3" ry="6.1"/>
	</g>
	<g>
		<linearGradient id="SVGID_4_" gradientUnits="userSpaceOnUse" x1="38.3551" y1="112.0232" x2="83.6551" y2="112.0232">
			<stop  offset="0" style="stop-color:#5985C9"/>
			<stop  offset="1" style="stop-color:#3863AB"/>
		</linearGradient>
		<path class="st4" d="M83.7,112c0,1.1-10.1,2-22.7,2c-12.5,0-22.6-0.9-22.6-2c0-1.1,10.1-2,22.6-2C73.5,110.1,83.7,110.9,83.7,112z
			"/>
	</g>
	<g class="st5">
		<linearGradient id="SVGID_5_" gradientUnits="userSpaceOnUse" x1="95.5713" y1="87.0825" x2="115.0456" y2="106.5568">
			<stop  offset="0" style="stop-color:#B4D3FD"/>
			<stop  offset="1" style="stop-color:#84B0F3"/>
		</linearGradient>
		<ellipse class="st6" cx="104.3" cy="95.9" rx="17" ry="2.8"/>
	</g>
	<g class="st5">
		<linearGradient id="SVGID_6_" gradientUnits="userSpaceOnUse" x1="8.2699" y1="87.0825" x2="27.7442" y2="106.5568">
			<stop  offset="0" style="stop-color:#B4D3FD"/>
			<stop  offset="1" style="stop-color:#84B0F3"/>
		</linearGradient>
		<ellipse class="st7" cx="17" cy="95.9" rx="17" ry="2.8"/>
	</g>
	<g class="st5">
		<linearGradient id="SVGID_7_" gradientUnits="userSpaceOnUse" x1="9.0079" y1="23.6456" x2="24.8248" y2="39.4625">
			<stop  offset="0" style="stop-color:#B4D3FD"/>
			<stop  offset="1" style="stop-color:#84B0F3"/>
		</linearGradient>
		<path class="st8" d="M22.7,38.5H10.5c-0.6,0-1.1-0.5-1.1-1.1V25.2c0-0.6,0.5-1.1,1.1-1.1h12.2c0.6,0,1.1,0.5,1.1,1.1v12.2
			C23.8,38,23.3,38.5,22.7,38.5z"/>
	</g>
	<g class="st5">
		<linearGradient id="SVGID_8_" gradientUnits="userSpaceOnUse" x1="96.7442" y1="-0.3746" x2="112.5611" y2="15.4424">
			<stop  offset="0" style="stop-color:#B4D3FD"/>
			<stop  offset="1" style="stop-color:#84B0F3"/>
		</linearGradient>
		<path class="st9" d="M110.4,14.4H98.2c-0.6,0-1.1-0.5-1.1-1.1V1.1c0-0.6,0.5-1.1,1.1-1.1h12.2c0.6,0,1.1,0.5,1.1,1.1v12.2
			C111.6,13.9,111.1,14.4,110.4,14.4z"/>
	</g>
	<linearGradient id="SVGID_9_" gradientUnits="userSpaceOnUse" x1="104.3419" y1="43.6968" x2="104.3419" y2="94.947">
		<stop  offset="0" style="stop-color:#D5E8FD;stop-opacity:0"/>
		<stop  offset="1" style="stop-color:#7DB2FA;stop-opacity:0.859"/>
	</linearGradient>
	<path class="st10" d="M104.3,33.1h-6.1v61c0,0,2.7,0.3,6.1,0.3c3.4,0,6.1-0.3,6.1-0.3v-61H104.3z"/>
	<linearGradient id="SVGID_10_" gradientUnits="userSpaceOnUse" x1="17.0406" y1="57.976" x2="17.0406" y2="94.805">
		<stop  offset="0" style="stop-color:#D5E8FD;stop-opacity:0"/>
		<stop  offset="1" style="stop-color:#7DB2FA;stop-opacity:0.859"/>
	</linearGradient>
	<path class="st11" d="M17,50.4H11v43.9c0,0,2.7,0.2,6.1,0.2c3.4,0,6.1-0.2,6.1-0.2V50.4H17z"/>
	<g>
		<linearGradient id="SVGID_11_" gradientUnits="userSpaceOnUse" x1="49.1774" y1="81.5186" x2="73.1192" y2="105.4604">
			<stop  offset="0" style="stop-color:#74A2E3"/>
			<stop  offset="1" style="stop-color:#5C8BDB"/>
		</linearGradient>
		<path class="st12" d="M71.2,105.4H50.5c-1.1,0-1.9-0.9-1.9-1.9V82.9c0-1.1,0.9-1.9,1.9-1.9h20.7c1.1,0,1.9,0.9,1.9,1.9v20.7
			C73.1,104.6,72.2,105.4,71.2,105.4z"/>
		<linearGradient id="SVGID_12_" gradientUnits="userSpaceOnUse" x1="52.5068" y1="85.3122" x2="70.6795" y2="102.4752">
			<stop  offset="0" style="stop-color:#EDF8FF"/>
			<stop  offset="1" style="stop-color:#B0D3FC"/>
		</linearGradient>
		<circle class="st13" cx="60.9" cy="93.2" r="9.1"/>
	</g>
	<linearGradient id="SVGID_13_" gradientUnits="userSpaceOnUse" x1="61.0051" y1="81.4128" x2="61.0051" y2="118.6392">
		<stop  offset="0" style="stop-color:#D5E8FD;stop-opacity:0"/>
		<stop  offset="1" style="stop-color:#7DB2FA;stop-opacity:0.859"/>
	</linearGradient>
	<path class="st14" d="M83.7,71.8V112c0,1.1-10.1,2-22.7,2c-12.5,0-22.6-0.9-22.6-2V71.8H83.7z"/>
</g>
</svg>
