<?xml version="1.0" encoding="utf-8"?>
<!-- Generator: Adobe Illustrator 22.0.1, SVG Export Plug-In . SVG Version: 6.00 Build 0)  -->
<svg version="1.1" id="Layer_1" xmlns="http://www.w3.org/2000/svg" xmlns:xlink="http://www.w3.org/1999/xlink" x="0px" y="0px"
	 viewBox="0 0 1920 1092" style="enable-background:new 0 0 1920 1092;" xml:space="preserve">
<style type="text/css">
	.st0{fill:url(#SVGID_1_);}
	.st1{fill:url(#SVGID_2_);}
	.st2{fill:url(#SVGID_3_);}
	.st3{fill:url(#SVGID_4_);}
	.st4{fill:url(#SVGID_5_);}
	.st5{fill:url(#SVGID_6_);}
	.st6{fill:url(#SVGID_7_);}
	.st7{fill:url(#SVGID_8_);}
	.st8{fill:url(#SVGID_9_);}
	.st9{fill:url(#SVGID_10_);}
	.st10{fill:url(#SVGID_11_);}
	.st11{fill:url(#SVGID_12_);}
	.st12{opacity:0.63;fill:url(#SVGID_13_);}
	.st13{fill:url(#SVGID_14_);}
	.st14{fill:url(#SVGID_15_);}
	.st15{fill:url(#SVGID_16_);}
	.st16{fill:url(#SVGID_17_);}
	.st17{fill:url(#SVGID_18_);}
	.st18{fill:url(#SVGID_19_);}
	.st19{fill:url(#SVGID_20_);}
	.st20{opacity:0.63;fill:url(#SVGID_21_);}
	.st21{fill:url(#SVGID_22_);}
	.st22{fill:url(#SVGID_23_);}
	.st23{fill:url(#SVGID_24_);}
	.st24{fill:url(#SVGID_25_);}
	.st25{fill:url(#SVGID_26_);}
	.st26{fill:url(#SVGID_27_);}
	.st27{opacity:0.68;}
	.st28{fill:url(#SVGID_28_);}
	.st29{opacity:0.63;fill:url(#SVGID_29_);}
	.st30{fill:url(#SVGID_30_);}
	.st31{fill:url(#SVGID_31_);}
	.st32{fill:url(#SVGID_32_);}
	.st33{fill:url(#SVGID_33_);}
	.st34{fill:url(#SVGID_34_);}
	.st35{fill:url(#SVGID_35_);}
	.st36{fill:url(#SVGID_36_);}
</style>
<g>
	<linearGradient id="SVGID_1_" gradientUnits="userSpaceOnUse" x1="120.9199" y1="-278.3121" x2="1982.6099" y2="1354.814">
		<stop  offset="0" style="stop-color:#FAFCFF"/>
		<stop  offset="0.4039" style="stop-color:#ECF6FF"/>
		<stop  offset="1" style="stop-color:#CFEAFF"/>
	</linearGradient>
	<path class="st0" d="M0,80.1c260.7-132.5,488.4-2.6,710.6-10.5s367.7-97,692.8-61.2c309.1,34,516.6,94.9,516.6,94.9l-0.9,710.5
		L0,812.2L0,80.1z"/>
	<linearGradient id="SVGID_2_" gradientUnits="userSpaceOnUse" x1="960" y1="31.0214" x2="960" y2="641.4604">
		<stop  offset="0" style="stop-color:#FAFCFF"/>
		<stop  offset="0.869" style="stop-color:#ECF5FF;stop-opacity:0.131"/>
		<stop  offset="1" style="stop-color:#E9F4FF;stop-opacity:0"/>
	</linearGradient>
	<path class="st1" d="M0,80.1c260.7-132.5,488.4-2.6,710.6-10.5s367.7-97,692.8-61.2c309.1,34,516.6,94.9,516.6,94.9v708.8H0L0,80.1
		z"/>
	<linearGradient id="SVGID_3_" gradientUnits="userSpaceOnUse" x1="1422.1593" y1="319.8645" x2="2056.4451" y2="1208.5614">
		<stop  offset="0" style="stop-color:#FAFCFF"/>
		<stop  offset="1" style="stop-color:#B8DAFE"/>
	</linearGradient>
	<path class="st2" d="M1579.7,296.6c-145.2,19.2-310.9,141-310.9,141l193.3,425.9l357.4-30.4l29.1-397.6l-56.8-85.2l-119.6-60.1
		L1579.7,296.6z"/>
	<g>
		<linearGradient id="SVGID_4_" gradientUnits="userSpaceOnUse" x1="261.1937" y1="78.5114" x2="640.2786" y2="1083.4441">
			<stop  offset="0" style="stop-color:#FAFCFF"/>
			<stop  offset="1" style="stop-color:#BFE0FE"/>
		</linearGradient>
		<path class="st3" d="M867.7,345.6c-280.5,344-616.2,391-616.2,391L0,726.8V274.6c51.1-32.1,97.2-49.7,140.9-57.5h0
			C313.8,186.2,601.8,355.4,867.7,345.6z"/>
	</g>
	<linearGradient id="SVGID_5_" gradientUnits="userSpaceOnUse" x1="1740.777" y1="188.4418" x2="1617.7379" y2="1068.6438">
		<stop  offset="0" style="stop-color:#FAFCFF"/>
		<stop  offset="1" style="stop-color:#B8DAFE"/>
	</linearGradient>
	<path class="st4" d="M1920,287.7c0,145.8,0,625.5,0,625.5l-484.9-99.9l-41.3-150c42.2-90.6,186.1-55.2,290.2-114.9
		c104.1-59.7,86.5-220.1-104.3-251.8C1710,282.4,1833.5,261.5,1920,287.7z"/>
	<linearGradient id="SVGID_6_" gradientUnits="userSpaceOnUse" x1="810.6361" y1="738.2962" x2="3635.8955" y2="1593.0319">
		<stop  offset="0" style="stop-color:#FAFCFF"/>
		<stop  offset="1" style="stop-color:#B8DDFE"/>
	</linearGradient>
	<path class="st5" d="M1920,814.2v249.4H0V457.1c214.4,50.1,434.9,7.7,743.2-125.3c122.5-52.9,221.2-81.1,307-79.1
		c130.1,3,230.4,75.6,338.4,237.2c22.6,33.7,46,64,70,91.1c0,0,0,0,0,0c11,12.5,22.2,24.3,33.4,35.4c53.1,52.9,108,91.7,161.1,120.1
		C1757.7,792.7,1856.4,809,1920,814.2z"/>
	<linearGradient id="SVGID_7_" gradientUnits="userSpaceOnUse" x1="1013.7177" y1="716.3452" x2="166.7794" y2="1626.0197">
		<stop  offset="0" style="stop-color:#FAFCFF"/>
		<stop  offset="0.3615" style="stop-color:#E8F3FF"/>
		<stop  offset="1" style="stop-color:#BFE0FE"/>
	</linearGradient>
	<path class="st6" d="M1919.1,1012.5v79.5H0V457.1c24.9,5.8,50,10.4,75.2,13.7c16.6,2.2,33.3,3.9,50.2,4.9
		c177.4,11.7,369-36.6,617.8-144c122.5-52.9,221.2-81.1,307-79.1l0,0.1c116.5,9.6,206.8,92.5,131.6,215.9
		c-11.9,19.5-24.3,40.1-36.6,61.6v0c-3,5.2-5.9,10.5-8.9,15.7c-8.4,15.1-16.6,30.6-24.5,46.3c-50.2,100.8-84.3,213.5-39,314.1
		c33.1,73.5,112.8,78.3,212.9,65.2c97-12.6,213.1-42,324.7-42c169.5,0,258,46.3,291.9,69.7
		C1913.1,1006.7,1918.4,1011.8,1919.1,1012.5C1919,1012.5,1919,1012.5,1919.1,1012.5z"/>
	<linearGradient id="SVGID_8_" gradientUnits="userSpaceOnUse" x1="960" y1="749.6758" x2="960" y2="1074.6357">
		<stop  offset="0" style="stop-color:#FFFFFF;stop-opacity:0"/>
		<stop  offset="1" style="stop-color:#FFFFFF"/>
	</linearGradient>
	<path class="st7" d="M1920,1092L0,1092V457.1c24.9,5.8,50,10.4,75.2,13.7c16.6,2.2,33.3,3.9,50.2,4.9c67,4.4,136.1,0.3,209.5-12.4
		c120.9-20.9,253.5-64.8,408.3-131.6c122.5-52.9,221.2-81.1,307-79.1l0,0.1c116.5,9.6,206.8,92.5,131.6,215.9
		c-11.9,19.5-24.3,40.1-36.6,61.6v0c-3,5.2-5.9,10.5-8.9,15.7c-8.4,15.1-16.6,30.5-24.5,46.3c-50.2,100.8-84.3,213.5-39,314.1
		c33.1,73.5,112.8,78.3,212.9,65.2c97-12.6,213.1-42,324.7-42c169.5,0,258,46.3,291.9,69.7c10.8,7.5,17.6,13.3,17.6,13.4V1092z"/>
	<linearGradient id="SVGID_9_" gradientUnits="userSpaceOnUse" x1="615.6848" y1="840.2645" x2="-90.5163" y2="357.0817">
		<stop  offset="0" style="stop-color:#FAFCFF"/>
		<stop  offset="1" style="stop-color:#ACD7FE"/>
	</linearGradient>
	<path class="st8" d="M1041.7,535.1c-1.5,4.7-3.3,9.5-5.5,14.3c-3.7,8.1-8.3,16.3-13.9,24.5v0c-5.9,8.7-12.9,17.4-20.9,26.1
		c0,0,0,0-0.1,0c-12.8,13.8-28.2,27.5-46.3,40.6C806.6,748.5,601.9,899.8,474,1092H0V948c269.5-84.4,617.4-516.4,857.8-537.2
		C1005.1,398,1065.9,460.1,1041.7,535.1z"/>
	<linearGradient id="SVGID_10_" gradientUnits="userSpaceOnUse" x1="779.3789" y1="903.4706" x2="779.3789" y2="1062.2477">
		<stop  offset="0" style="stop-color:#FFFFFF;stop-opacity:0"/>
		<stop  offset="1" style="stop-color:#FFFFFF"/>
	</linearGradient>
	<path class="st9" d="M0,948c0,0,370.4-52.6,662.3-52.6s896.5,196.6,896.5,196.6H0V948z"/>
	<linearGradient id="SVGID_11_" gradientUnits="userSpaceOnUse" x1="1543.755" y1="856.5178" x2="1937.7496" y2="1143.3458">
		<stop  offset="0" style="stop-color:#FFFFFF;stop-opacity:0"/>
		<stop  offset="1" style="stop-color:#FFFFFF"/>
	</linearGradient>
	<path class="st10" d="M1920,814.2v249.4h-526.1l83.2-327.1h176C1757.7,792.7,1856.4,809,1920,814.2z"/>
	<linearGradient id="SVGID_12_" gradientUnits="userSpaceOnUse" x1="280.31" y1="759.787" x2="-90.4078" y2="824.3818">
		<stop  offset="0" style="stop-color:#FFFFFF;stop-opacity:0"/>
		<stop  offset="1" style="stop-color:#FFFFFF"/>
	</linearGradient>
	<path class="st11" d="M391.1,1092H0V457.1c24.9,5.8,50,10.4,75.2,13.7c16.6,2.2,33.3,3.9,50.2,4.9c67,4.4,136.1,0.3,209.5-12.4
		L391.1,1092z"/>
	<g>
		
			<radialGradient id="SVGID_13_" cx="370.5203" cy="850.5856" r="152.4935" gradientTransform="matrix(0.816 0.5788 -0.4692 0.6631 468.6188 75.0119)" gradientUnits="userSpaceOnUse">
			<stop  offset="0" style="stop-color:#CEDDF8"/>
			<stop  offset="0.3381" style="stop-color:#D3E0F9;stop-opacity:0.6619"/>
			<stop  offset="0.7247" style="stop-color:#E1EAFB;stop-opacity:0.2753"/>
			<stop  offset="1" style="stop-color:#EFF4FE;stop-opacity:0"/>
		</radialGradient>
		<path class="st12" d="M195.9,899.1c54,64.8,189.2,57,258.8,41.4c57.2-12.8,63-52-8.7-80.4C255.4,826.1,195.9,899.1,195.9,899.1z"
			/>
		
			<linearGradient id="SVGID_14_" gradientUnits="userSpaceOnUse" x1="248.6766" y1="835.6604" x2="445.2081" y2="941.806" gradientTransform="matrix(0.9999 -1.594135e-02 1.594135e-02 0.9999 -12.1967 8.5283)">
			<stop  offset="1.270012e-03" style="stop-color:#DEECFE"/>
			<stop  offset="0.2088" style="stop-color:#E6F1FE"/>
			<stop  offset="0.7463" style="stop-color:#D5E3F8"/>
			<stop  offset="1" style="stop-color:#E3EFFE"/>
		</linearGradient>
		<path class="st13" d="M469.7,883.6c0,5.1-1.3,9.7-3.8,13.9c-4.3,7.4-12.2,13.6-22.7,18.6c-25.6,12.1-67.3,17.5-114.3,17.5
			c-27.4,0-52.9-1.9-74.5-5.8c-17-3.1-31.6-7.5-42.6-13.3c-14.8-7.7-23.3-18-23.3-31c0-8.6,4.3-16.9,11.8-24.6c0.9-1,1.9-1.9,3-2.9
			c0.5-0.5,1-0.9,1.6-1.4c0.6-0.5,1.1-0.9,1.7-1.4c0.6-0.5,1.2-0.9,1.8-1.4c0.6-0.5,1.2-0.9,1.8-1.4c0,0,0,0,0,0
			c0.6-0.5,1.2-0.9,1.9-1.3c1.3-0.9,2.6-1.8,3.9-2.6c0.7-0.4,1.3-0.9,2-1.3c4.9-3,10.3-5.8,16.1-8.4c0.7-0.3,1.5-0.7,2.2-1
			c0.2-0.1,0.3-0.1,0.5-0.2c1.6-0.7,3.2-1.3,4.9-2c0.2-0.1,0.4-0.2,0.6-0.2c1.5-0.6,3.1-1.2,4.7-1.8c0.9-0.3,1.8-0.6,2.7-1
			c0.9-0.3,1.7-0.6,2.6-0.9c1.4-0.5,2.8-0.9,4.3-1.4c2.1-0.6,4.2-1.3,6.4-1.9c0.3-0.1,0.5-0.1,0.8-0.2c0.6-0.2,1.2-0.3,1.8-0.5
			c0.3-0.1,0.7-0.2,1.1-0.3c5.9-1.5,11.9-2.9,18-4c1-0.2,2-0.4,3-0.5c1.7-0.3,3.4-0.6,5.1-0.8c1.7-0.3,3.5-0.5,5.2-0.7
			c0.4-0.1,0.9-0.1,1.3-0.2c0.3,0,0.6-0.1,0.9-0.1c0.9-0.1,1.8-0.2,2.7-0.3c2.8-0.3,5.6-0.6,8.3-0.8c0.8-0.1,1.6-0.1,2.4-0.2
			c2.4-0.2,4.8-0.3,7.2-0.4c0.8,0,1.6-0.1,2.4-0.1c2.1,0,4.1-0.1,6.2-0.1c0.9,0,1.8,0,2.7,0c11.9,0.1,23.9,1.2,35.6,3
			c11.4,1.8,22.4,4.3,32.8,7.4c10.7,3.2,20.6,7.1,29.5,11.4c10,4.9,18.6,10.5,25.1,16.6C464.3,864.5,469.7,873.9,469.7,883.6z"/>
		
			<linearGradient id="SVGID_15_" gradientUnits="userSpaceOnUse" x1="204.8418" y1="823.2087" x2="455.7187" y2="884.373" gradientTransform="matrix(0.9999 -1.594135e-02 1.594135e-02 0.9999 -12.1967 8.5283)">
			<stop  offset="1.270012e-03" style="stop-color:#E8F5FE"/>
			<stop  offset="0.2316" style="stop-color:#ECF6FE"/>
			<stop  offset="1" style="stop-color:#EAF2FC"/>
		</linearGradient>
		<path class="st14" d="M455,856c-15.2,21.2-65.9,31.3-126.3,32.5c-62.6,1.3-115.1-7.4-128.6-29.7c23.2-23.8,76.9-41.4,129.2-41.3
			c24.5,0,49.3,3.9,71.1,10.5c10.7,3.2,20.6,7.1,29.5,11.4C439.9,844.4,448.4,850,455,856z"/>
		
			<linearGradient id="SVGID_16_" gradientUnits="userSpaceOnUse" x1="259.0074" y1="826.2242" x2="377.5791" y2="826.2242" gradientTransform="matrix(1 4.672347e-03 -4.672347e-03 1 3.0576 -2.1736)">
			<stop  offset="1.270012e-03" style="stop-color:#DEECFE"/>
			<stop  offset="0.2088" style="stop-color:#E6F1FE"/>
			<stop  offset="0.7463" style="stop-color:#D5E3F8"/>
			<stop  offset="1" style="stop-color:#E3EFFE"/>
		</linearGradient>
		<path class="st15" d="M376.8,825.2c0.3,8.8-26.1,14.7-58.9,16.1s-59.4-2.1-59.7-10.9c-0.3-8.8,26-19.5,58.7-20.9
			S376.5,816.4,376.8,825.2z"/>
		<linearGradient id="SVGID_17_" gradientUnits="userSpaceOnUse" x1="283.3043" y1="769.4348" x2="301.7306" y2="803.6002">
			<stop  offset="1.270012e-03" style="stop-color:#DEECFE"/>
			<stop  offset="0.2088" style="stop-color:#E6F1FE"/>
			<stop  offset="0.7463" style="stop-color:#D5E3F8"/>
			<stop  offset="1" style="stop-color:#E3EFFE"/>
		</linearGradient>
		<path class="st16" d="M298.5,815.1l-5-40.9c-0.1-0.4,0.3-0.8,0.7-0.8c0.4,0,0.8,0.2,0.9,0.6l7.1,40.7
			C302.4,815.6,298.7,816.1,298.5,815.1C298.5,815.1,298.5,815.1,298.5,815.1z"/>
		
			<linearGradient id="SVGID_18_" gradientUnits="userSpaceOnUse" x1="281.7808" y1="789.8168" x2="343.5342" y2="819.351" gradientTransform="matrix(1 4.672347e-03 -4.672347e-03 1 3.0576 -2.1736)">
			<stop  offset="1.270012e-03" style="stop-color:#DEECFE"/>
			<stop  offset="0.2088" style="stop-color:#E6F1FE"/>
			<stop  offset="0.7463" style="stop-color:#D5E3F8"/>
			<stop  offset="1" style="stop-color:#E3EFFE"/>
		</linearGradient>
		<path class="st17" d="M310.8,812.1c0,0-2.1-14.7,3.9-15c6.1-0.3,15.7,13.7,15.7,13.7S326.5,815.7,310.8,812.1z"/>
		<linearGradient id="SVGID_19_" gradientUnits="userSpaceOnUse" x1="423.7721" y1="817.8778" x2="354.2028" y2="906.8856">
			<stop  offset="0" style="stop-color:#EBF4FE;stop-opacity:0.6"/>
			<stop  offset="0.5018" style="stop-color:#CDDDF2"/>
			<stop  offset="1" style="stop-color:#9CBDED"/>
		</linearGradient>
		<path class="st18" d="M429.9,839.5c4.8,20.2-41.6,29.8-49.9,30.9c-1,0.1-2.1-0.2-2.8-1c-1.8-2-5.7-6.3-11.7-12.5
			c-0.6-0.6-0.3-1.6,0.6-1.8c21.2-4.6,44-16.2,34.3-27C411.1,831.2,421.1,835.1,429.9,839.5z"/>
		<g>
			
				<linearGradient id="SVGID_20_" gradientUnits="userSpaceOnUse" x1="452.2765" y1="921.0857" x2="452.2765" y2="887.3859" gradientTransform="matrix(0.9999 -1.594135e-02 1.594135e-02 0.9999 -12.1967 8.5283)">
				<stop  offset="0" style="stop-color:#EBF4FE;stop-opacity:0.6"/>
				<stop  offset="0.5018" style="stop-color:#CDDDF2"/>
				<stop  offset="1" style="stop-color:#A8C4EC"/>
			</linearGradient>
			<path class="st19" d="M465.8,897.5c-4.3,7.4-12.2,13.6-22.7,18.6C444.3,887,465.5,883.1,465.8,897.5z"/>
		</g>
	</g>
	<g>
		
			<radialGradient id="SVGID_21_" cx="1568.0438" cy="775.3325" r="83.6813" gradientTransform="matrix(0.9948 0.1022 -4.959993e-02 0.4839 43.6523 263.1627)" gradientUnits="userSpaceOnUse">
			<stop  offset="0" style="stop-color:#DAE8FE"/>
			<stop  offset="0.5687" style="stop-color:#DFEBFE;stop-opacity:0.4313"/>
			<stop  offset="1" style="stop-color:#E7EFFE;stop-opacity:0"/>
		</radialGradient>
		<path class="st20" d="M1449.8,787.7c27.2,41.8,105.6,48.3,147.6,44c34.5-3.5,42.2-27.8,2-49.5
			C1489.8,749,1449.8,787.7,1449.8,787.7z"/>
		<g>
			
				<linearGradient id="SVGID_22_" gradientUnits="userSpaceOnUse" x1="1456.916" y1="793.3754" x2="1588.3181" y2="795.8664" gradientTransform="matrix(0.9993 -3.782997e-02 3.782997e-02 0.9993 -25.1726 51.0137)">
				<stop  offset="0" style="stop-color:#E5F1FE"/>
				<stop  offset="1" style="stop-color:#D7E2FA"/>
			</linearGradient>
			<path class="st21" d="M1447.3,778c-0.5,3-0.1,5.8,0.9,8.5c1.8,4.7,5.8,9,11.6,12.9c13.8,9.4,37.7,16.5,65.1,20.8
				c16,2.5,31.1,3.8,44,3.5c10.2-0.2,19.1-1.5,26.1-3.8c9.3-3.2,15.3-8.3,16.5-16c0.8-5-1-10.3-4.6-15.5c-0.5-0.7-1-1.3-1.5-2
				c-0.3-0.3-0.5-0.6-0.8-1c-0.3-0.3-0.6-0.6-0.8-1c-0.3-0.3-0.6-0.6-0.9-1c-0.3-0.3-0.6-0.6-0.9-1c0,0,0,0,0,0
				c-0.3-0.3-0.6-0.6-1-1c-0.7-0.6-1.4-1.3-2.1-1.9c-0.3-0.3-0.7-0.6-1.1-0.9c-2.6-2.2-5.5-4.3-8.6-6.4c-0.4-0.3-0.8-0.5-1.2-0.8
				c-0.1-0.1-0.2-0.1-0.3-0.2c-0.9-0.6-1.8-1.1-2.7-1.6c-0.1-0.1-0.2-0.1-0.3-0.2c-0.8-0.5-1.7-1-2.6-1.5c-0.5-0.3-1-0.5-1.5-0.8
				c-0.5-0.3-1-0.5-1.4-0.8c-0.8-0.4-1.6-0.8-2.4-1.2c-1.2-0.6-2.4-1.1-3.6-1.7c-0.1-0.1-0.3-0.1-0.4-0.2c-0.3-0.2-0.7-0.3-1-0.5
				c-0.2-0.1-0.4-0.2-0.6-0.3c-3.3-1.4-6.7-2.8-10.2-4c-0.6-0.2-1.1-0.4-1.7-0.6c-1-0.3-1.9-0.6-2.9-0.9c-1-0.3-2-0.6-3-0.9
				c-0.3-0.1-0.5-0.1-0.7-0.2c-0.2,0-0.4-0.1-0.5-0.2c-0.5-0.2-1-0.3-1.6-0.4c-1.6-0.4-3.2-0.8-4.8-1.2c-0.5-0.1-0.9-0.2-1.4-0.3
				c-1.4-0.3-2.8-0.6-4.2-0.9c-0.5-0.1-0.9-0.2-1.4-0.3c-1.2-0.2-2.4-0.4-3.6-0.6c-0.5-0.1-1.1-0.2-1.6-0.2c-7-1-14.1-1.5-21-1.5
				c-6.8,0-13.5,0.4-19.9,1.3c-6.5,0.9-12.7,2.2-18.3,4c-6.3,2-11.8,4.4-16.2,7.3C1452.2,767.4,1448.2,772.3,1447.3,778z"/>
		</g>
		<g>
			
				<linearGradient id="SVGID_23_" gradientUnits="userSpaceOnUse" x1="1473.6812" y1="783.6133" x2="1627.8555" y2="780.2248" gradientTransform="matrix(0.9993 -3.782997e-02 3.782997e-02 0.9993 -25.1726 51.0137)">
				<stop  offset="0" style="stop-color:#EDF7FD"/>
				<stop  offset="1" style="stop-color:#DEE8FE"/>
			</linearGradient>
			<path class="st22" d="M1458.4,763.3c6.9,13.8,35.6,24.4,70.7,30.7c36.4,6.5,67.9,6.3,77.9-5.5c-11.3-16-41.1-31.3-71.6-36.1
				c-14.3-2.3-29.2-2.3-42.5-0.5c-6.5,0.9-12.7,2.2-18.3,4C1468.3,757.9,1462.8,760.3,1458.4,763.3z"/>
		</g>
		<g>
			
				<linearGradient id="SVGID_24_" gradientUnits="userSpaceOnUse" x1="1514.3567" y1="738.4495" x2="1581.8124" y2="750.3309" gradientTransform="matrix(0.9975 7.078999e-02 -7.078999e-02 0.9975 51.374 -93.6403)">
				<stop  offset="1.270012e-03" style="stop-color:#DFEDFE"/>
				<stop  offset="0.2088" style="stop-color:#E5F1FE"/>
				<stop  offset="1" style="stop-color:#D7E2FA"/>
			</linearGradient>
			<path class="st23" d="M1507,752.5c-1,5.1,13.9,11,32.9,14.9c19,3.9,34.9,4.2,35.9-0.9c1-5.1-13.4-13.8-32.4-17.6
				C1524.4,745,1507.9,747.4,1507,752.5z"/>
		</g>
		<g>
			
				<linearGradient id="SVGID_25_" gradientUnits="userSpaceOnUse" x1="1545.429" y1="739.4609" x2="1563.584" y2="724.3744" gradientTransform="matrix(0.9975 7.078999e-02 -7.078999e-02 0.9975 51.374 -93.6403)">
				<stop  offset="1.270012e-03" style="stop-color:#DFEDFE"/>
				<stop  offset="0.2088" style="stop-color:#E5F1FE"/>
				<stop  offset="1" style="stop-color:#D7E2FA"/>
			</linearGradient>
			<path class="st24" d="M1553.6,753.8l6.7-23.4c0.1-0.2-0.1-0.5-0.4-0.6c-0.3-0.1-0.5,0.1-0.6,0.3l-7.9,23.1
				C1551.3,753.7,1553.4,754.4,1553.6,753.8C1553.6,753.8,1553.6,753.8,1553.6,753.8z"/>
		</g>
		<g>
			
				<linearGradient id="SVGID_26_" gradientUnits="userSpaceOnUse" x1="1542.5066" y1="731.7565" x2="1554.0039" y2="732.7784" gradientTransform="matrix(0.9975 7.078999e-02 -7.078999e-02 0.9975 51.374 -93.6403)">
				<stop  offset="1.270012e-03" style="stop-color:#DFEDFE"/>
				<stop  offset="0.2088" style="stop-color:#E5F1FE"/>
				<stop  offset="1" style="stop-color:#D7E2FA"/>
			</linearGradient>
			<path class="st25" d="M1546.7,750.9c0,0,2.6-8.4-0.9-9.1c-3.5-0.7-10.4,6.6-10.4,6.6S1537.2,751.6,1546.7,750.9z"/>
		</g>
		<g>
			
				<linearGradient id="SVGID_27_" gradientUnits="userSpaceOnUse" x1="1485.7341" y1="742.1125" x2="1514.5178" y2="806.0764" gradientTransform="matrix(0.9998 1.773654e-02 -1.773654e-02 0.9998 11.4049 -22.9428)">
				<stop  offset="0" style="stop-color:#E5F1FE"/>
				<stop  offset="1" style="stop-color:#D7E2FA"/>
			</linearGradient>
			<path class="st26" d="M1474.6,755.9c-4.7,11.4,21.5,21.2,26.3,22.6c0.6,0.2,1.2,0.1,1.7-0.3c1.2-1,3.9-3.2,8-6.2
				c0.4-0.3,0.3-0.9-0.2-1.1c-12-4.6-24.2-13.5-17.6-18.9C1486.4,752.8,1480.2,754.2,1474.6,755.9z"/>
		</g>
		<g class="st27">
			
				<linearGradient id="SVGID_28_" gradientUnits="userSpaceOnUse" x1="1238.2352" y1="773.5566" x2="1238.0433" y2="757.6309" gradientTransform="matrix(-0.9851 -0.1718 -0.1718 0.9851 2806.8042 243.5046)">
				<stop  offset="0" style="stop-color:#ECF5FD;stop-opacity:0.6"/>
				<stop  offset="0.5018" style="stop-color:#CFDCF5"/>
				<stop  offset="1" style="stop-color:#ACC0F0"/>
			</linearGradient>
			<path class="st28" d="M1448.3,786.5c1.8,4.7,5.8,9,11.6,12.9C1461.8,782.3,1449.8,778.1,1448.3,786.5z"/>
		</g>
	</g>
	<g>
		
			<radialGradient id="SVGID_29_" cx="1511.0294" cy="403.0681" r="43.27" gradientTransform="matrix(0.952 -0.3066 0.1488 0.4631 45.674 594.2296)" gradientUnits="userSpaceOnUse">
			<stop  offset="0" style="stop-color:#E8F0FB"/>
			<stop  offset="0.6985" style="stop-color:#EDF3FC;stop-opacity:0.3015"/>
			<stop  offset="1" style="stop-color:#F1F6FD;stop-opacity:0"/>
		</radialGradient>
		<path class="st29" d="M1487.3,336.5c21.5,14.2,60,0.9,79-9.8c15.6-8.8,14.2-21.9-9.3-23.8C1498.2,309.8,1487.3,336.5,1487.3,336.5
			z"/>
		<g>
			
				<linearGradient id="SVGID_30_" gradientUnits="userSpaceOnUse" x1="1502.7394" y1="422.9358" x2="1570.6951" y2="424.2241" gradientTransform="matrix(0.8999 -0.4361 0.4361 0.8999 -44.1212 609.4427)">
				<stop  offset="0" style="stop-color:#EFF6FD"/>
				<stop  offset="1" style="stop-color:#E5EBF8"/>
			</linearGradient>
			<path class="st30" d="M1484.1,332.4c0.4,1.5,1.1,2.8,2.2,3.8c1.8,1.9,4.6,3.1,8.2,3.7c8.5,1.6,21.3,0,35.2-3.7
				c8.1-2.1,15.5-4.7,21.6-7.5c4.8-2.2,8.8-4.7,11.6-7.2c3.8-3.4,5.5-7.1,4.5-11c-0.7-2.5-2.6-4.7-5.4-6.4c-0.4-0.2-0.7-0.4-1.1-0.6
				c-0.2-0.1-0.4-0.2-0.6-0.3c-0.2-0.1-0.4-0.2-0.6-0.3c-0.2-0.1-0.4-0.2-0.6-0.3c-0.2-0.1-0.4-0.2-0.6-0.3c0,0,0,0,0,0
				c-0.2-0.1-0.4-0.2-0.7-0.3c-0.4-0.2-0.9-0.3-1.4-0.5c-0.2-0.1-0.5-0.1-0.7-0.2c-1.7-0.5-3.5-0.9-5.4-1.2c-0.2,0-0.5-0.1-0.7-0.1
				c-0.1,0-0.1,0-0.2,0c-0.5-0.1-1.1-0.1-1.6-0.2c-0.1,0-0.1,0-0.2,0c-0.5-0.1-1-0.1-1.5-0.2c-0.3,0-0.6,0-0.9-0.1
				c-0.3,0-0.6,0-0.8-0.1c-0.5,0-0.9-0.1-1.4-0.1c-0.7,0-1.4,0-2-0.1c-0.1,0-0.2,0-0.3,0c-0.2,0-0.4,0-0.6,0c-0.1,0-0.2,0-0.3,0
				c-1.9,0-3.7,0.1-5.6,0.2c-0.3,0-0.6,0-0.9,0.1c-0.5,0-1,0.1-1.6,0.2c-0.5,0.1-1.1,0.1-1.6,0.2c-0.1,0-0.3,0-0.4,0.1
				c-0.1,0-0.2,0-0.3,0c-0.3,0-0.6,0.1-0.8,0.1c-0.8,0.1-1.7,0.3-2.5,0.4c-0.2,0-0.5,0.1-0.7,0.1c-0.7,0.1-1.4,0.3-2.1,0.5
				c-0.2,0.1-0.5,0.1-0.7,0.2c-0.6,0.1-1.2,0.3-1.8,0.5c-0.3,0.1-0.5,0.1-0.8,0.2c-3.5,1-7,2.2-10.3,3.7c-3.2,1.4-6.3,3-9.1,4.7
				c-2.9,1.8-5.6,3.7-7.8,5.7c-2.6,2.2-4.7,4.5-6.2,6.9C1484.2,326.3,1483.3,329.5,1484.1,332.4z"/>
		</g>
		<g>
			
				<linearGradient id="SVGID_31_" gradientUnits="userSpaceOnUse" x1="1511.4131" y1="417.8892" x2="1591.1458" y2="416.1368" gradientTransform="matrix(0.8999 -0.4361 0.4361 0.8999 -44.1212 609.4427)">
				<stop  offset="0" style="stop-color:#F5FAFD"/>
				<stop  offset="1" style="stop-color:#EAF1FC"/>
			</linearGradient>
			<path class="st31" d="M1486.3,323.1c6.1,5.1,21.9,4.1,39.9-0.2c18.6-4.5,33.5-11.1,35.7-18.8c-8.7-5.2-26-6.3-41.4-2.2
				c-7.2,1.9-14.3,5-20.2,8.6c-2.9,1.8-5.6,3.7-7.8,5.7C1489.9,318.5,1487.8,320.8,1486.3,323.1z"/>
		</g>
		<g>
			
				<linearGradient id="SVGID_32_" gradientUnits="userSpaceOnUse" x1="1497.4824" y1="385.4689" x2="1532.3618" y2="391.6125" gradientTransform="matrix(0.9419 -0.3359 0.3359 0.9419 -32.1414 446.2231)">
				<stop  offset="1.270012e-03" style="stop-color:#EAF3FC"/>
				<stop  offset="0.2088" style="stop-color:#EFF6FD"/>
				<stop  offset="1" style="stop-color:#E5EBF8"/>
			</linearGradient>
			<path class="st32" d="M1507,307.9c0.6,2.6,8.9,2.3,18.7,0.2c9.8-2.1,17.4-5.3,16.8-7.9c-0.6-2.6-9.2-3.7-19-1.6
				C1513.7,300.7,1506.4,305.3,1507,307.9z"/>
		</g>
		<g>
			
				<linearGradient id="SVGID_33_" gradientUnits="userSpaceOnUse" x1="1513.5509" y1="385.9923" x2="1522.9429" y2="378.1877" gradientTransform="matrix(0.9419 -0.3359 0.3359 0.9419 -32.1414 446.2231)">
				<stop  offset="1.270012e-03" style="stop-color:#EAF3FC"/>
				<stop  offset="0.2088" style="stop-color:#EFF6FD"/>
				<stop  offset="1" style="stop-color:#E5EBF8"/>
			</linearGradient>
			<path class="st33" d="M1529.4,298.8l-1.7-12.5c0-0.1-0.1-0.2-0.3-0.2c-0.1,0-0.2,0.1-0.2,0.3l1.1,12.6
				C1528.3,299.3,1529.4,299.1,1529.4,298.8C1529.4,298.9,1529.4,298.8,1529.4,298.8z"/>
		</g>
		<g>
			
				<linearGradient id="SVGID_34_" gradientUnits="userSpaceOnUse" x1="1512.0404" y1="382.0082" x2="1517.9863" y2="382.5368" gradientTransform="matrix(0.9419 -0.3359 0.3359 0.9419 -32.1414 446.2231)">
				<stop  offset="1.270012e-03" style="stop-color:#EAF3FC"/>
				<stop  offset="0.2088" style="stop-color:#EFF6FD"/>
				<stop  offset="1" style="stop-color:#E5EBF8"/>
			</linearGradient>
			<path class="st34" d="M1525.5,298.9c0,0-0.5-4.5-2.3-4.1c-1.8,0.4-3.6,5.3-3.6,5.3S1521.1,301.2,1525.5,298.9z"/>
		</g>
		<g>
			
				<linearGradient id="SVGID_35_" gradientUnits="userSpaceOnUse" x1="1500.1715" y1="390.8233" x2="1515.0469" y2="423.8797" gradientTransform="matrix(0.9227 -0.3855 0.3855 0.9227 -40.3389 527.022)">
				<stop  offset="0" style="stop-color:#EFF6FD"/>
				<stop  offset="1" style="stop-color:#E5EBF8"/>
			</linearGradient>
			<path class="st35" d="M1492.4,316.3c0.1,6.4,14.6,5.6,17.1,5.3c0.3,0,0.6-0.2,0.7-0.5c0.4-0.7,1.2-2.3,2.5-4.6
				c0.1-0.2,0-0.5-0.3-0.5c-6.6,0.3-14.3-1.4-12.2-5.3C1497.3,312.4,1494.7,314.3,1492.4,316.3z"/>
		</g>
		<g class="st27">
			
				<linearGradient id="SVGID_36_" gradientUnits="userSpaceOnUse" x1="1268.0112" y1="399.2052" x2="1267.9121" y2="390.973" gradientTransform="matrix(-0.9711 0.2385 0.2385 0.9711 2626.5759 -352.0781)">
				<stop  offset="0" style="stop-color:#F4F9FD;stop-opacity:0.6"/>
				<stop  offset="0.5018" style="stop-color:#DDE6F3"/>
				<stop  offset="1" style="stop-color:#C3D0E9"/>
			</linearGradient>
			<path class="st36" d="M1486.3,336.2c1.8,1.9,4.6,3.1,8.2,3.7C1491.8,331.4,1485.3,331.9,1486.3,336.2z"/>
		</g>
	</g>
</g>
</svg>
