<?xml version="1.0" encoding="utf-8"?>
<!-- Generator: Adobe Illustrator 22.0.1, SVG Export Plug-In . SVG Version: 6.00 Build 0)  -->
<svg version="1.1" id="Layer_1" xmlns="http://www.w3.org/2000/svg" xmlns:xlink="http://www.w3.org/1999/xlink" x="0px" y="0px"
	 viewBox="0 0 121.3 121.4" style="enable-background:new 0 0 121.3 121.4;" xml:space="preserve">
<style type="text/css">
	.st0{fill:url(#SVGID_1_);}
	.st1{fill:#FFFFFF;}
	.st2{fill:url(#SVGID_2_);}
	.st3{opacity:0.45;fill:url(#SVGID_3_);}
	.st4{fill:url(#SVGID_4_);}
	.st5{opacity:0.7;fill:url(#SVGID_5_);}
	.st6{fill:url(#SVGID_6_);}
	.st7{fill:url(#SVGID_7_);}
	.st8{opacity:0.7;fill:url(#SVGID_8_);}
	.st9{fill:url(#SVGID_9_);}
	.st10{fill:url(#SVGID_10_);}
	.st11{fill:url(#SVGID_11_);}
	.st12{fill:url(#SVGID_12_);}
	.st13{fill:url(#SVGID_13_);}
	.st14{fill:url(#SVGID_14_);}
</style>
<g>
	<g>
		<linearGradient id="SVGID_1_" gradientUnits="userSpaceOnUse" x1="37.1574" y1="37.1946" x2="84.5335" y2="84.5707">
			<stop  offset="0" style="stop-color:#B4D3FD"/>
			<stop  offset="1" style="stop-color:#84B0F3"/>
		</linearGradient>
		<path class="st0" d="M94.3,60.8c0,1.4-0.1,2.8-0.2,4.1c-2,16.5-16.1,29.4-33.2,29.4c-17.1,0-31.2-12.8-33.2-29.4
			c-0.2-1.3-0.2-2.7-0.2-4.1c0-1.8,0.1-3.5,0.4-5.1c2.5-16,16.3-28.3,33-28.3c16.7,0,30.6,12.3,33.1,28.3
			C94.1,57.4,94.3,59.1,94.3,60.8z"/>
		<path class="st1" d="M94.3,60.8c0,1.4-0.1,2.8-0.2,4.1H27.6c-0.2-1.3-0.2-2.7-0.2-4.1c0-1.8,0.1-3.5,0.4-5.1h66.1
			C94.1,57.4,94.3,59.1,94.3,60.8z"/>
		<circle class="st1" cx="60.8" cy="60.8" r="17.8"/>
	</g>
	<g>
		<g>
			<linearGradient id="SVGID_2_" gradientUnits="userSpaceOnUse" x1="52.875" y1="0.3762" x2="68.8917" y2="16.3929">
				<stop  offset="0" style="stop-color:#B7D5FD"/>
				<stop  offset="1" style="stop-color:#88B2F3"/>
			</linearGradient>
			<path class="st2" d="M67.6,16.4H53.8c-0.7,0-1.3-0.6-1.3-1.3V1.3c0-0.7,0.6-1.3,1.3-1.3h13.8c0.7,0,1.3,0.6,1.3,1.3v13.8
				C68.9,15.8,68.3,16.4,67.6,16.4z"/>
		</g>
		<linearGradient id="SVGID_3_" gradientUnits="userSpaceOnUse" x1="58.2813" y1="5.1785" x2="62.9223" y2="9.8195">
			<stop  offset="0" style="stop-color:#FAFCFF"/>
			<stop  offset="1" style="stop-color:#E1F1FF"/>
		</linearGradient>
		<path class="st3" d="M61.2,4h-1c-0.2,0-0.5,0.1-0.6,0.3c-0.4,0.5-1.3,1.4-2.2,1.3c-0.3,0-0.5,0.2-0.5,0.5c0.2,3.7,2.3,5.9,3.3,6.7
			c0.3,0.2,0.7,0.2,1,0c1-0.8,3.1-3,3.3-6.7c0-0.3-0.2-0.5-0.5-0.5c-0.9,0.1-1.8-0.8-2.2-1.3C61.7,4.1,61.4,4,61.2,4z"/>
	</g>
	<g>
		<g>
			<linearGradient id="SVGID_4_" gradientUnits="userSpaceOnUse" x1="99.5826" y1="37.64" x2="121.3261" y2="37.64">
				<stop  offset="0" style="stop-color:#B7D5FD"/>
				<stop  offset="1" style="stop-color:#88B2F3"/>
			</linearGradient>
			<path class="st4" d="M119.6,48.5h-18.3c-0.9,0-1.7-0.8-1.7-1.7V28.5c0-0.9,0.8-1.7,1.7-1.7h18.3c0.9,0,1.7,0.8,1.7,1.7v18.3
				C121.3,47.7,120.6,48.5,119.6,48.5z"/>
			<linearGradient id="SVGID_5_" gradientUnits="userSpaceOnUse" x1="104.7756" y1="31.9612" x2="115.3333" y2="42.5189">
				<stop  offset="0" style="stop-color:#FAFCFF"/>
				<stop  offset="1" style="stop-color:#E1F1FF"/>
			</linearGradient>
			<circle class="st5" cx="110.5" cy="37.6" r="8.1"/>
		</g>
		<linearGradient id="SVGID_6_" gradientUnits="userSpaceOnUse" x1="107.2562" y1="33.6403" x2="113.4151" y2="39.7992">
			<stop  offset="0" style="stop-color:#B7D5FD"/>
			<stop  offset="1" style="stop-color:#88B2F3"/>
		</linearGradient>
		<path class="st6" d="M111.1,32h-1.4c-0.3,0-0.6,0.1-0.8,0.4c-0.5,0.6-1.7,1.8-2.9,1.7c-0.4-0.1-0.7,0.3-0.7,0.7
			c0.3,4.9,3.1,7.8,4.4,8.8c0.4,0.3,1,0.3,1.4,0c1.3-1.1,4.1-3.9,4.4-8.8c0-0.4-0.3-0.7-0.7-0.7c-1.2,0.2-2.4-1-2.9-1.7
			C111.7,32.2,111.5,32,111.1,32z"/>
	</g>
	<g>
		<g>
			<linearGradient id="SVGID_7_" gradientUnits="userSpaceOnUse" x1="0" y1="37.64" x2="21.7436" y2="37.64">
				<stop  offset="0" style="stop-color:#B7D5FD"/>
				<stop  offset="1" style="stop-color:#88B2F3"/>
			</linearGradient>
			<path class="st7" d="M20,48.5H1.7c-0.9,0-1.7-0.8-1.7-1.7V28.5c0-0.9,0.8-1.7,1.7-1.7H20c0.9,0,1.7,0.8,1.7,1.7v18.3
				C21.7,47.7,21,48.5,20,48.5z"/>
			<linearGradient id="SVGID_8_" gradientUnits="userSpaceOnUse" x1="5.193" y1="31.9612" x2="15.7507" y2="42.5189">
				<stop  offset="0" style="stop-color:#FAFCFF"/>
				<stop  offset="1" style="stop-color:#E1F1FF"/>
			</linearGradient>
			<circle class="st8" cx="10.9" cy="37.6" r="8.1"/>
		</g>
		<linearGradient id="SVGID_9_" gradientUnits="userSpaceOnUse" x1="7.6737" y1="33.6403" x2="13.8326" y2="39.7992">
			<stop  offset="0" style="stop-color:#B7D5FD"/>
			<stop  offset="1" style="stop-color:#88B2F3"/>
		</linearGradient>
		<path class="st9" d="M11.6,32h-1.4c-0.3,0-0.6,0.1-0.8,0.4c-0.5,0.6-1.7,1.8-2.9,1.7c-0.4-0.1-0.7,0.3-0.7,0.7
			c0.3,4.9,3.1,7.8,4.4,8.8c0.4,0.3,1,0.3,1.4,0c1.3-1.1,4.1-3.9,4.4-8.8c0-0.4-0.3-0.7-0.7-0.7c-1.2,0.2-2.4-1-2.9-1.7
			C12.2,32.2,11.9,32,11.6,32z"/>
	</g>
	<g>
		<g>
			<linearGradient id="SVGID_10_" gradientUnits="userSpaceOnUse" x1="45.2195" y1="89.6942" x2="76.9234" y2="121.3982">
				<stop  offset="0" style="stop-color:#89B6F5"/>
				<stop  offset="1" style="stop-color:#6A9CEC"/>
			</linearGradient>
			<path class="st10" d="M74.4,121.4H47c-1.4,0-2.5-1.1-2.5-2.5V91.5c0-1.4,1.1-2.5,2.5-2.5h27.3c1.4,0,2.5,1.1,2.5,2.5v27.3
				C76.9,120.2,75.8,121.4,74.4,121.4z"/>
			<linearGradient id="SVGID_11_" gradientUnits="userSpaceOnUse" x1="52.2207" y1="96.6955" x2="67.9687" y2="112.4434">
				<stop  offset="0" style="stop-color:#EFF9FF"/>
				<stop  offset="1" style="stop-color:#B3D5FC"/>
			</linearGradient>
			<circle class="st11" cx="60.7" cy="105.2" r="12.1"/>
		</g>
		<linearGradient id="SVGID_12_" gradientUnits="userSpaceOnUse" x1="53.0755" y1="105.5999" x2="68.307" y2="105.5999">
			<stop  offset="0" style="stop-color:#89B6F5"/>
			<stop  offset="1" style="stop-color:#6A9CEC"/>
		</linearGradient>
		<path class="st12" d="M61.7,96.8h-2.1c-0.5,0-0.9,0.2-1.2,0.6c-0.8,0.9-2.6,2.7-4.3,2.5c-0.6-0.1-1.1,0.4-1,1
			c0.5,7.3,4.6,11.6,6.6,13.2c0.6,0.5,1.4,0.5,2,0c2-1.6,6.1-5.8,6.6-13.2c0-0.6-0.5-1.1-1-1c-1.8,0.3-3.5-1.5-4.3-2.5
			C62.6,97,62.2,96.8,61.7,96.8z"/>
	</g>
	<linearGradient id="SVGID_13_" gradientUnits="userSpaceOnUse" x1="60.6809" y1="54.9159" x2="60.6809" y2="104.1706">
		<stop  offset="0" style="stop-color:#FFFFFF"/>
		<stop  offset="1" style="stop-color:#FFFFFF;stop-opacity:0"/>
	</linearGradient>
	<path class="st13" d="M93.5,110.5H27.8L51,57.4l0.6-1.4c0,0,0,0,0-0.1c1.2-2.3,3.3-4.1,6-4.9c4.6-1.4,9.4,0.5,11.8,4.4
		c0,0.1,0.1,0.1,0.1,0.2l0.4,0.7c0,0.1,0.1,0.1,0.1,0.2l0.2,0.5L93.5,110.5z"/>
	<linearGradient id="SVGID_14_" gradientUnits="userSpaceOnUse" x1="53.2979" y1="53.335" x2="67.8591" y2="67.8961">
		<stop  offset="0" style="stop-color:#B4D3FD"/>
		<stop  offset="1" style="stop-color:#84B0F3"/>
	</linearGradient>
	<circle class="st14" cx="60.8" cy="60.8" r="10.3"/>
</g>
</svg>
