<?xml version="1.0" ?><svg id="Layer_1" style="enable-background:new 0 0 64 64;" version="1.1" viewBox="0 0 64 64" xml:space="preserve" xmlns="http://www.w3.org/2000/svg" xmlns:xlink="http://www.w3.org/1999/xlink"><style type="text/css">
	.st0{fill:#56AAFF;}
	.st1{fill:none;stroke:#0478ED;stroke-width:2;stroke-miterlimit:10;}
	.st2{fill:#0478ED;}
	.st3{fill:#D9DCE1;}
	.st4{fill:none;stroke:#0478ED;stroke-width:5;stroke-linecap:round;stroke-miterlimit:10;}
	.st5{fill:#FFFFFF;}
	.st6{fill:none;stroke:#FFFFFF;stroke-width:2;stroke-miterlimit:10;}
	.st7{fill:none;stroke:#56AAFF;stroke-width:2;stroke-miterlimit:10;}
	.st8{fill:none;stroke:#0478ED;stroke-width:3;stroke-linecap:square;stroke-miterlimit:10;}
	.st9{fill:none;stroke:#56AAFF;stroke-width:5;stroke-miterlimit:10;}
	.st10{fill:none;stroke:#0478ED;stroke-width:3;stroke-miterlimit:10;}
	.st11{fill:none;stroke:#D9DCE1;stroke-width:4;stroke-miterlimit:10;}
	.st12{fill:none;stroke:#56AAFF;stroke-width:3;stroke-miterlimit:10;}
	.st13{fill:none;stroke:#56AAFF;stroke-width:3;stroke-linecap:round;stroke-miterlimit:10;}
	.st14{fill-rule:evenodd;clip-rule:evenodd;fill:#D9DCE1;}
	.st15{fill-rule:evenodd;clip-rule:evenodd;fill:#56AAFF;}
	.st16{fill:none;stroke:#FFFFFF;stroke-width:2;stroke-linecap:round;stroke-linejoin:round;stroke-miterlimit:10;}
	.st17{fill:none;stroke:#0478ED;stroke-width:2;stroke-linecap:round;stroke-miterlimit:10;}
	.st18{fill:none;stroke:#0478ED;stroke-width:2;stroke-linecap:round;stroke-miterlimit:10;stroke-dasharray:0.1099,4.3951;}
	.st19{fill:none;stroke:#0478ED;stroke-width:2;stroke-linecap:round;stroke-miterlimit:10;stroke-dasharray:9.264706e-02,3.7059;}
	.st20{fill:#FFFFFF;stroke:#56AAFF;stroke-width:2;stroke-miterlimit:10;}
	.st21{fill:none;stroke:#FFFFFF;stroke-width:4;stroke-miterlimit:10;}
	.st22{fill:none;stroke:#0478ED;stroke-width:2;stroke-linecap:round;stroke-miterlimit:10;stroke-dasharray:9.776388e-02,3.9106;}
	.st23{fill:none;stroke:#D9DCE1;stroke-width:2;stroke-linecap:round;stroke-miterlimit:10;}
	.st24{fill:none;stroke:#D9DCE1;stroke-width:2;stroke-linecap:round;stroke-miterlimit:10;stroke-dasharray:9.002770e-02,3.6011;}
	.st25{fill:none;stroke:#D9DCE1;stroke-width:2;stroke-linecap:round;stroke-miterlimit:10;stroke-dasharray:0.1152,4.606;}
	.st26{fill:none;stroke:#D9DCE1;stroke-width:2;stroke-linecap:round;stroke-miterlimit:10;stroke-dasharray:9.058228e-02,3.6233;}
	.st27{fill:none;stroke:#D9DCE1;stroke-width:2;stroke-linecap:round;stroke-miterlimit:10;stroke-dasharray:8.905454e-02,3.5622;}
	.st28{fill:none;stroke:#D9DCE1;stroke-width:2;stroke-linecap:round;stroke-miterlimit:10;stroke-dasharray:9.102297e-02,3.6409;}
	.st29{fill:none;stroke:#D9DCE1;stroke-width:2;stroke-linecap:round;stroke-miterlimit:10;stroke-dasharray:9.122662e-02,3.6491;}
	.st30{fill:none;stroke:#D9DCE1;stroke-width:2;stroke-linecap:round;stroke-miterlimit:10;stroke-dasharray:6.419753e-02,2.5679;}
	.st31{fill:none;stroke:#D9DCE1;stroke-width:2;stroke-linecap:round;stroke-miterlimit:10;stroke-dasharray:6.666666e-02,2.6667;}
	.st32{fill:none;stroke:#D9DCE1;stroke-width:2;stroke-linecap:round;stroke-miterlimit:10;stroke-dasharray:6.335912e-02,2.5344;}
	.st33{fill:none;stroke:#D9DCE1;stroke-width:2;stroke-linecap:round;stroke-miterlimit:10;stroke-dasharray:6.514134e-02,2.6057;}
	.st34{fill:none;stroke:#D9DCE1;stroke-width:2;stroke-linecap:round;stroke-miterlimit:10;stroke-dasharray:6.387379e-02,2.555;}
	.st35{fill:none;stroke:#D9DCE1;stroke-width:2;stroke-linecap:round;stroke-miterlimit:10;stroke-dasharray:6.425033e-02,2.57;}
	.st36{fill-rule:evenodd;clip-rule:evenodd;fill:#0478ED;}
	.st37{fill:none;stroke:#56AAFF;stroke-width:3;stroke-linecap:round;stroke-linejoin:round;stroke-miterlimit:10;}
	.st38{fill:none;stroke:#D9DCE1;stroke-width:3;stroke-miterlimit:10;}
</style><g id="custom_x5F_design"/><path class="st3" d="M31,43.9l-10.9-6.3c-0.3-0.2-0.3-0.7,0-0.9l10.8-6.2c0.6-0.4,1.4-0.4,2.1,0l10.9,6.3c0.3,0.2,0.3,0.7,0,0.9  l-10.8,6.2C32.4,44.3,31.6,44.3,31,43.9z"/><path class="st0" d="M31,38.7l-10.9-6.3c-0.3-0.2-0.3-0.7,0-0.9l10.8-6.2c0.6-0.4,1.4-0.4,2.1,0l10.9,6.3c0.3,0.2,0.3,0.7,0,0.9  l-10.8,6.2C32.4,39.1,31.6,39.1,31,38.7z"/><path class="st2" d="M31,33.5l-10.9-6.3c-0.3-0.2-0.3-0.7,0-0.9l10.8-6.2c0.6-0.4,1.4-0.4,2.1,0l10.9,6.3c0.3,0.2,0.3,0.7,0,0.9  l-10.8,6.2C32.4,33.9,31.6,33.9,31,33.5z"/><g><g><line class="st38" x1="32" x2="32" y1="47" y2="53.5"/><g><polygon class="st3" points="27.5,52.2 32,60 36.5,52.2    "/></g></g></g><g><g><line class="st38" x1="32" x2="32" y1="17" y2="10.5"/><g><polygon class="st3" points="36.5,11.8 32,4 27.5,11.8    "/></g></g></g><g><g><line class="st38" x1="45" x2="50.7" y1="39.5" y2="42.8"/><g><polygon class="st3" points="47.3,46 56.2,46 51.8,38.2    "/></g></g></g><g><g><line class="st38" x1="19" x2="13.3" y1="24.5" y2="21.2"/><g><polygon class="st3" points="16.7,18 7.8,18 12.2,25.8    "/></g></g></g><g><g><line class="st38" x1="45" x2="50.7" y1="24.5" y2="21.2"/><g><polygon class="st3" points="51.8,25.8 56.2,18 47.3,18    "/></g></g></g><g><g><line class="st38" x1="19" x2="13.3" y1="39.5" y2="42.8"/><g><polygon class="st3" points="12.2,38.2 7.8,46 16.7,46    "/></g></g></g></svg>