<?xml version="1.0" encoding="utf-8"?>
<!-- Generator: Adobe Illustrator 21.0.0, SVG Export Plug-In . SVG Version: 6.00 Build 0)  -->
<svg version="1.1" id="Layer_1" xmlns="http://www.w3.org/2000/svg" xmlns:xlink="http://www.w3.org/1999/xlink" x="0px" y="0px"
	 viewBox="0 0 64 64" style="enable-background:new 0 0 64 64;" xml:space="preserve">
<style type="text/css">
	.st0{fill:#007BFF;}
	.st1{fill:#D9DCE1;}
</style>
<g>
	<path class="st0" d="M21.2,29.5c-0.8,0-1.4,0.2-1.7,0.7C19.1,30.6,19,31.3,19,32c0,0.4,0,0.7,0.1,1s0.2,0.6,0.4,0.8
		c0.2,0.2,0.4,0.4,0.7,0.5c0.3,0.1,0.6,0.2,0.9,0.2c0.2,0,0.4,0,0.5,0s0.3,0,0.4,0v-2.7h1.7v3.8c-0.2,0.1-0.5,0.2-1,0.3
		C22.2,36,21.6,36,21,36s-1.1-0.1-1.6-0.3s-0.9-0.4-1.2-0.8c-0.3-0.3-0.6-0.8-0.8-1.3c-0.2-0.5-0.3-1.1-0.3-1.7
		c0-0.6,0.1-1.2,0.3-1.7c0.2-0.5,0.5-0.9,0.8-1.3c0.3-0.3,0.8-0.6,1.2-0.8c0.5-0.2,1-0.3,1.5-0.3c0.4,0,0.7,0,1,0.1
		c0.3,0,0.5,0.1,0.8,0.2c0.2,0.1,0.4,0.1,0.5,0.2s0.2,0.1,0.3,0.2L23,30c-0.2-0.1-0.5-0.2-0.8-0.3C21.9,29.6,21.6,29.5,21.2,29.5z"
		/>
	<path class="st0" d="M32,32c0,0.7-0.1,1.2-0.3,1.7s-0.5,0.9-0.9,1.2s-0.8,0.6-1.4,0.7c-0.5,0.2-1.2,0.2-1.8,0.2c-0.3,0-0.7,0-1.1,0
		s-0.8-0.1-1.2-0.2v-7.5c0.4-0.1,0.8-0.1,1.2-0.1c0.4,0,0.8,0,1.1,0c0.7,0,1.3,0.1,1.8,0.2s1,0.4,1.4,0.7c0.4,0.3,0.7,0.7,0.9,1.2
		C31.9,30.7,32,31.3,32,32z M27,34.4c0.1,0,0.2,0,0.3,0c0.1,0,0.2,0,0.4,0c0.9,0,1.5-0.2,1.9-0.7c0.4-0.4,0.6-1,0.6-1.8
		s-0.2-1.4-0.6-1.8s-1-0.6-1.9-0.6c-0.1,0-0.2,0-0.4,0c-0.1,0-0.2,0-0.4,0v4.9H27z"/>
	<path class="st0" d="M35.7,28.1c1.1,0,2,0.2,2.6,0.6s0.9,1.1,0.9,2s-0.3,1.6-0.9,2c-0.6,0.4-1.5,0.6-2.7,0.6h-0.5v2.6h-1.7v-7.6
		c0.4-0.1,0.8-0.1,1.2-0.2C35,28.1,35.4,28.1,35.7,28.1z M35.8,29.6c-0.1,0-0.2,0-0.4,0c-0.1,0-0.2,0-0.3,0v2.2h0.5
		c0.6,0,1-0.1,1.4-0.2c0.3-0.2,0.5-0.5,0.5-0.9c0-0.2,0-0.4-0.1-0.5s-0.2-0.3-0.3-0.3c-0.1-0.1-0.3-0.1-0.5-0.2
		C36.3,29.6,36.1,29.6,35.8,29.6z"/>
	<path class="st0" d="M42.8,28.1c1.2,0,2,0.2,2.6,0.6s0.9,1,0.9,1.9c0,0.5-0.1,1-0.4,1.3c-0.2,0.3-0.6,0.6-1.1,0.8
		c0.2,0.2,0.3,0.4,0.5,0.7c0.2,0.2,0.3,0.5,0.5,0.8s0.3,0.6,0.5,0.8c0.2,0.3,0.3,0.6,0.4,0.9h-1.9c-0.1-0.3-0.3-0.5-0.4-0.8
		s-0.3-0.5-0.4-0.8c-0.2-0.2-0.3-0.5-0.5-0.7c-0.1-0.2-0.3-0.4-0.4-0.6h-0.9v2.8h-1.7v-7.6c0.4-0.1,0.8-0.1,1.2-0.2
		C42.1,28.1,42.5,28.1,42.8,28.1z M42.9,29.6c-0.1,0-0.2,0-0.3,0s-0.2,0-0.3,0v2.1h0.5c0.7,0,1.1-0.1,1.4-0.2
		c0.3-0.2,0.4-0.4,0.4-0.8s-0.1-0.6-0.4-0.8C43.9,29.6,43.5,29.6,42.9,29.6z"/>
</g>
<path class="st1" d="M32.5,5.9l1.4,2.9l3.2,0.5c0.4,0.1,0.6,0.6,0.3,0.9L35,12.4l0.5,3.2c0.1,0.4-0.4,0.7-0.7,0.5L32,14.6l-2.8,1.5
	c-0.4,0.2-0.8-0.1-0.7-0.5l0.5-3.2l-2.3-2.2c-0.3-0.3-0.1-0.8,0.3-0.9l3.2-0.5l1.4-2.9C31.7,5.6,32.3,5.6,32.5,5.9z"/>
<path class="st1" d="M32.5,5.9l1.4,2.9l3.2,0.5c0.4,0.1,0.6,0.6,0.3,0.9L35,12.4l0.5,3.2c0.1,0.4-0.4,0.7-0.7,0.5L32,14.6l-2.8,1.5
	c-0.4,0.2-0.8-0.1-0.7-0.5l0.5-3.2l-2.3-2.2c-0.3-0.3-0.1-0.8,0.3-0.9l3.2-0.5l1.4-2.9C31.7,5.6,32.3,5.6,32.5,5.9z"/>
<path class="st1" d="M32.5,48.1l1.4,2.9l3.2,0.5c0.4,0.1,0.6,0.6,0.3,0.9L35,54.6l0.5,3.2c0.1,0.4-0.4,0.7-0.7,0.5L32,56.8l-2.8,1.5
	c-0.4,0.2-0.8-0.1-0.7-0.5l0.5-3.2l-2.3-2.2c-0.3-0.3-0.1-0.8,0.3-0.9l3.2-0.5l1.4-2.9C31.7,47.7,32.3,47.7,32.5,48.1z"/>
<path class="st1" d="M47.5,12.1L49,15l3.2,0.5c0.4,0.1,0.6,0.6,0.3,0.9l-2.3,2.2l0.5,3.2c0.1,0.4-0.4,0.7-0.7,0.5l-2.8-1.5l-2.8,1.5
	c-0.4,0.2-0.8-0.1-0.7-0.5l0.5-3.2l-2.3-2.2c-0.3-0.3-0.1-0.8,0.3-0.9l3.2-0.5l1.4-2.9C46.8,11.7,47.4,11.7,47.5,12.1z"/>
<path class="st1" d="M47.5,42.1l1.4,2.9l3.2,0.5c0.4,0.1,0.6,0.6,0.3,0.9L50,48.6l0.5,3.2c0.1,0.4-0.4,0.7-0.7,0.5L47,50.8l-2.8,1.5
	c-0.4,0.2-0.8-0.1-0.7-0.5l0.5-3.2l-2.3-2.2c-0.3-0.3-0.1-0.8,0.3-0.9l3.2-0.5l1.4-2.9C46.7,41.7,47.3,41.7,47.5,42.1z"/>
<path class="st1" d="M17.5,42.1l1.4,2.9l3.2,0.5c0.4,0.1,0.6,0.6,0.3,0.9L20,48.6l0.5,3.2c0.1,0.4-0.4,0.7-0.7,0.5L17,50.8l-2.8,1.5
	c-0.4,0.2-0.8-0.1-0.7-0.5l0.5-3.2l-2.3-2.2c-0.3-0.3-0.1-0.8,0.3-0.9l3.2-0.5l1.4-2.9C16.7,41.7,17.3,41.7,17.5,42.1z"/>
<path class="st1" d="M54,27l1.4,2.9l3.2,0.5c0.4,0.1,0.6,0.6,0.3,0.9l-2.3,2.2l0.5,3.2c0.1,0.4-0.4,0.7-0.7,0.5l-2.8-1.5l-2.8,1.5
	c-0.4,0.2-0.8-0.1-0.7-0.5l0.5-3.2l-2.3-2.2c-0.3-0.3-0.1-0.8,0.3-0.9l3.2-0.5L53,27C53.2,26.7,53.8,26.7,54,27z"/>
<path class="st1" d="M11,27l1.4,2.9l3.2,0.5c0.4,0.1,0.6,0.6,0.3,0.9l-2.3,2.2l0.5,3.2c0.1,0.4-0.4,0.7-0.7,0.5l-2.8-1.5l-2.8,1.5
	c-0.4,0.2-0.8-0.1-0.7-0.5l0.5-3.2l-2.3-2.2C5,31,5.2,30.5,5.6,30.4l3.2-0.5L10,27C10.2,26.7,10.8,26.7,11,27z"/>
<path class="st1" d="M19.8,21.2L17,19.8l-2.8,1.5c-0.4,0.2-0.8-0.1-0.7-0.5l0.5-3.2l-2.3-2.2c-0.3-0.3-0.1-0.8,0.3-0.9l3-0.5
	l1.4-2.9c0.2-0.4,0.7-0.4,0.9,0l1.5,2.9l3.2,0.4c0.4,0.1,0.6,0.6,0.3,0.9L20,17.5l0.6,3.2C20.6,21.1,20.2,21.4,19.8,21.2z"/>
</svg>
