<?xml version="1.0" ?><svg id="Layer_1" style="enable-background:new 0 0 64 64;" version="1.1" viewBox="0 0 64 64" xml:space="preserve" xmlns="http://www.w3.org/2000/svg" xmlns:xlink="http://www.w3.org/1999/xlink"><style type="text/css">
	.st0{fill:#D9DCE1;}
	.st1{fill:#0478ED;}
	.st2{fill:#56AAFF;}
	.st3{fill-rule:evenodd;clip-rule:evenodd;fill:#D9DCE1;}
	.st4{fill:#FFFFFF;}
	.st5{fill:none;stroke:#56AAFF;stroke-width:3;stroke-linecap:round;stroke-miterlimit:10;}
	.st6{fill:none;stroke:#FFFFFF;stroke-width:2;stroke-miterlimit:10;}
	.st7{fill:none;stroke:#D9DCE1;stroke-width:4;stroke-linecap:round;stroke-miterlimit:10;}
	.st8{fill:none;stroke:#D9DCE1;stroke-width:3;stroke-linecap:round;stroke-linejoin:round;stroke-miterlimit:10;}
	.st9{fill:none;stroke:#D9DCE1;stroke-width:5;stroke-linecap:round;stroke-linejoin:round;stroke-miterlimit:10;}
	.st10{fill:none;stroke:#D9DCE1;stroke-width:3;stroke-miterlimit:10;}
	.st11{fill:none;stroke:#56AAFF;stroke-width:5;stroke-linecap:round;stroke-linejoin:round;stroke-miterlimit:10;}
	.st12{fill-rule:evenodd;clip-rule:evenodd;fill:#0478ED;}
	.st13{fill:none;stroke:#56AAFF;stroke-width:4;stroke-linecap:round;stroke-miterlimit:10;}
	.st14{fill:none;stroke:#56AAFF;stroke-width:3;stroke-linecap:round;stroke-linejoin:round;stroke-miterlimit:10;}
	.st15{fill:none;stroke:#56AAFF;stroke-width:3;stroke-miterlimit:10;}
	.st16{fill:none;stroke:#0478ED;stroke-width:5;stroke-linecap:round;stroke-linejoin:round;stroke-miterlimit:10;}
	.st17{fill-rule:evenodd;clip-rule:evenodd;fill:#56AAFF;}
	.st18{fill:none;stroke:#0478ED;stroke-width:2;stroke-miterlimit:10;}
	.st19{fill:none;stroke:#56AAFF;stroke-width:4;stroke-miterlimit:10;}
	.st20{fill:none;stroke:#D9DCE1;stroke-width:2;stroke-miterlimit:10;}
	.st21{fill:none;stroke:#0478ED;stroke-width:2;stroke-linecap:square;stroke-miterlimit:10;}
	.st22{fill-rule:evenodd;clip-rule:evenodd;fill:#FFFFFF;}
	.st23{fill:none;stroke:#FFFFFF;stroke-width:2;stroke-linecap:square;stroke-miterlimit:10;}
	.st24{fill:none;stroke:#0478ED;stroke-width:2;stroke-linecap:square;stroke-linejoin:bevel;stroke-miterlimit:10;}
	.st25{fill:none;stroke:#56AAFF;stroke-width:5;stroke-miterlimit:10;}
	.st26{fill:none;stroke:#0478ED;stroke-width:4;stroke-miterlimit:10;}
	.st27{fill:none;stroke:#0478ED;stroke-width:2;stroke-miterlimit:10;stroke-dasharray:2,2;}
	.st28{fill:none;stroke:#0478ED;stroke-width:2;stroke-linecap:round;stroke-linejoin:round;stroke-miterlimit:10;}
	.st29{fill:none;stroke:#FFFFFF;stroke-width:4.8483;stroke-miterlimit:10;}
</style><path class="st3" d="M55.6,26.8h-5.3c-0.5-2.1-1.3-4-2.4-5.8l3.8-3.8c0.5-0.5,0.5-1.4,0-2l-3.9-3.9c-0.5-0.5-1.4-0.5-2,0L42,15.1  c-1.8-1.1-3.7-1.9-5.8-2.4V7.4c0-0.8-0.6-1.4-1.4-1.4h-5.6c-0.8,0-1.4,0.6-1.4,1.4v5.3c-2.1,0.5-4,1.3-5.8,2.4l-3.8-3.8  c-0.5-0.5-1.4-0.5-2,0l-3.9,3.9c-0.5,0.5-0.5,1.4,0,2l3.8,3.8c-1.1,1.8-1.9,3.7-2.4,5.8H8.4c-0.8,0-1.4,0.6-1.4,1.4v5.6  c0,0.8,0.6,1.4,1.4,1.4h5.3c0.5,2.1,1.3,4,2.4,5.8l-3.8,3.8c-0.5,0.5-0.5,1.4,0,2l3.9,3.9c0.5,0.5,1.4,0.5,2,0l3.8-2.7  c1.8,1.1,3.7,0.9,5.8,1.4v5.3c0,0.8,0.6,1.4,1.4,1.4h5.6c0.8,0,1.4-0.6,1.4-1.4v-5.3c2.1-0.5,4-0.3,5.8-1.4l3.8,2.7  c0.5,0.5,1.4,0.5,2,0l3.9-3.9c0.5-0.5,0.5-1.4,0-2L47.9,41c1.1-1.8,1.9-3.7,2.4-5.8h5.3c0.8,0,1.4-0.6,1.4-1.4v-5.6  C57,27.5,56.4,26.8,55.6,26.8z"/><circle class="st17" cx="32" cy="31" r="11"/><polyline class="st23" points="30,29 32,29 32,36 "/><line class="st23" x1="29" x2="35" y1="36" y2="36"/><circle class="st4" cx="31.5" cy="25.5" r="1.5"/></svg>