<?xml version="1.0" ?><svg id="Layer_1" style="enable-background:new 0 0 64 64;" version="1.1" viewBox="0 0 64 64" xml:space="preserve" xmlns="http://www.w3.org/2000/svg" xmlns:xlink="http://www.w3.org/1999/xlink"><style type="text/css">
	.st0{fill:#56AAFF;}
	.st1{fill:none;stroke:#0478ED;stroke-width:2;stroke-miterlimit:10;}
	.st2{fill:#0478ED;}
	.st3{fill:#D9DCE1;}
	.st4{fill:none;stroke:#0478ED;stroke-width:5;stroke-linecap:round;stroke-miterlimit:10;}
	.st5{fill:#FFFFFF;}
	.st6{fill:none;stroke:#FFFFFF;stroke-width:2;stroke-miterlimit:10;}
	.st7{fill:none;stroke:#56AAFF;stroke-width:2;stroke-miterlimit:10;}
	.st8{fill:none;stroke:#0478ED;stroke-width:3;stroke-linecap:square;stroke-miterlimit:10;}
	.st9{fill:none;stroke:#56AAFF;stroke-width:5;stroke-miterlimit:10;}
	.st10{fill:none;stroke:#0478ED;stroke-width:3;stroke-miterlimit:10;}
	.st11{fill:none;stroke:#D9DCE1;stroke-width:4;stroke-miterlimit:10;}
	.st12{fill:none;stroke:#56AAFF;stroke-width:3;stroke-miterlimit:10;}
	.st13{fill:none;stroke:#56AAFF;stroke-width:3;stroke-linecap:round;stroke-miterlimit:10;}
	.st14{fill-rule:evenodd;clip-rule:evenodd;fill:#D9DCE1;}
	.st15{fill-rule:evenodd;clip-rule:evenodd;fill:#56AAFF;}
	.st16{fill:none;stroke:#FFFFFF;stroke-width:2;stroke-linecap:round;stroke-linejoin:round;stroke-miterlimit:10;}
	.st17{fill:none;stroke:#0478ED;stroke-width:2;stroke-linecap:round;stroke-miterlimit:10;}
	.st18{fill:none;stroke:#0478ED;stroke-width:2;stroke-linecap:round;stroke-miterlimit:10;stroke-dasharray:0.1099,4.3951;}
	.st19{fill:none;stroke:#0478ED;stroke-width:2;stroke-linecap:round;stroke-miterlimit:10;stroke-dasharray:9.264706e-02,3.7059;}
	.st20{fill:#FFFFFF;stroke:#56AAFF;stroke-width:2;stroke-miterlimit:10;}
	.st21{fill:none;stroke:#FFFFFF;stroke-width:4;stroke-miterlimit:10;}
	.st22{fill:none;stroke:#0478ED;stroke-width:2;stroke-linecap:round;stroke-miterlimit:10;stroke-dasharray:9.776388e-02,3.9106;}
	.st23{fill:none;stroke:#D9DCE1;stroke-width:2;stroke-linecap:round;stroke-miterlimit:10;}
	.st24{fill:none;stroke:#D9DCE1;stroke-width:2;stroke-linecap:round;stroke-miterlimit:10;stroke-dasharray:9.002770e-02,3.6011;}
	.st25{fill:none;stroke:#D9DCE1;stroke-width:2;stroke-linecap:round;stroke-miterlimit:10;stroke-dasharray:0.1152,4.606;}
	.st26{fill:none;stroke:#D9DCE1;stroke-width:2;stroke-linecap:round;stroke-miterlimit:10;stroke-dasharray:9.058228e-02,3.6233;}
	.st27{fill:none;stroke:#D9DCE1;stroke-width:2;stroke-linecap:round;stroke-miterlimit:10;stroke-dasharray:8.905454e-02,3.5622;}
	.st28{fill:none;stroke:#D9DCE1;stroke-width:2;stroke-linecap:round;stroke-miterlimit:10;stroke-dasharray:9.102297e-02,3.6409;}
	.st29{fill:none;stroke:#D9DCE1;stroke-width:2;stroke-linecap:round;stroke-miterlimit:10;stroke-dasharray:9.122662e-02,3.6491;}
	.st30{fill:none;stroke:#D9DCE1;stroke-width:2;stroke-linecap:round;stroke-miterlimit:10;stroke-dasharray:6.419753e-02,2.5679;}
	.st31{fill:none;stroke:#D9DCE1;stroke-width:2;stroke-linecap:round;stroke-miterlimit:10;stroke-dasharray:6.666666e-02,2.6667;}
	.st32{fill:none;stroke:#D9DCE1;stroke-width:2;stroke-linecap:round;stroke-miterlimit:10;stroke-dasharray:6.335912e-02,2.5344;}
	.st33{fill:none;stroke:#D9DCE1;stroke-width:2;stroke-linecap:round;stroke-miterlimit:10;stroke-dasharray:6.514134e-02,2.6057;}
	.st34{fill:none;stroke:#D9DCE1;stroke-width:2;stroke-linecap:round;stroke-miterlimit:10;stroke-dasharray:6.387379e-02,2.555;}
	.st35{fill:none;stroke:#D9DCE1;stroke-width:2;stroke-linecap:round;stroke-miterlimit:10;stroke-dasharray:6.425033e-02,2.57;}
	.st36{fill-rule:evenodd;clip-rule:evenodd;fill:#0478ED;}
	.st37{fill:none;stroke:#56AAFF;stroke-width:3;stroke-linecap:round;stroke-linejoin:round;stroke-miterlimit:10;}
	.st38{fill:none;stroke:#D9DCE1;stroke-width:3;stroke-miterlimit:10;}
</style><polyline class="st11" points="41,52 41,25 12,25 "/><polyline class="st11" points="53,52 53,13 12,13 "/><g><path class="st0" d="M12,50.3V34.7c0-0.9,0.9-1.7,2-1.7h15c1.1,0,2,0.7,2,1.7v15.7c0,0.9-0.9,1.7-2,1.7H14C12.9,52,12,51.3,12,50.3   z"/><path class="st2" d="M32,38H11c-0.6,0-1-0.4-1-1v-4c0-0.6,0.4-1,1-1h21c0.6,0,1,0.4,1,1v4C33,37.6,32.6,38,32,38z"/><path class="st2" d="M32,46H11c-0.6,0-1-0.4-1-1v-4c0-0.6,0.4-1,1-1h21c0.6,0,1,0.4,1,1v4C33,45.6,32.6,46,32,46z"/><path class="st2" d="M32,54H11c-0.6,0-1-0.4-1-1v-4c0-0.6,0.4-1,1-1h21c0.6,0,1,0.4,1,1v4C33,53.6,32.6,54,32,54z"/></g><g><g><line class="st1" x1="36" x2="51.7" y1="53" y2="53"/><g><polygon class="st2" points="50.8,56 56,53 50.8,50    "/></g></g></g><g><g><line class="st1" x1="11" x2="11" y1="30" y2="14.3"/><g><polygon class="st2" points="14,15.2 11,10 8,15.2    "/></g></g></g><g id="custom_x5F_design"/></svg>