<?xml version="1.0" ?><svg id="Layer_1" style="enable-background:new 0 0 64 64;" version="1.1" viewBox="0 0 64 64" xml:space="preserve" xmlns="http://www.w3.org/2000/svg" xmlns:xlink="http://www.w3.org/1999/xlink"><style type="text/css">
	.st0{fill:#D9DCE1;}
	.st1{fill:#56AAFF;}
	.st2{fill:#0478ED;}
	.st3{fill:none;stroke:#FFFFFF;stroke-width:4;stroke-linecap:round;stroke-linejoin:round;stroke-miterlimit:10;}
	.st4{fill:#FFFFFF;}
	.st5{fill:none;stroke:#FFFFFF;stroke-width:2.2357;stroke-linecap:square;stroke-miterlimit:10;}
	.st6{fill:none;stroke:#0478ED;stroke-width:2;stroke-miterlimit:10;stroke-dasharray:2,2;}
	.st7{fill:none;stroke:#56AAFF;stroke-width:5;stroke-miterlimit:10;}
	.st8{fill:none;stroke:#0478ED;stroke-width:3;stroke-miterlimit:10;}
	.st9{fill:none;stroke:#D9DCE1;stroke-width:3;stroke-miterlimit:10;}
	.st10{fill:none;stroke:#56AAFF;stroke-width:4;stroke-linecap:round;stroke-miterlimit:10;}
	.st11{fill:none;stroke:#0478ED;stroke-width:4;stroke-miterlimit:10;}
	.st12{fill:none;stroke:#FFFFFF;stroke-width:2;stroke-miterlimit:10;}
	.st13{fill:none;stroke:#D9DCE1;stroke-width:4;stroke-miterlimit:10;}
	.st14{fill:none;stroke:#D9DCE1;stroke-width:6;stroke-linecap:round;stroke-miterlimit:10;}
	.st15{fill:none;stroke:#D9DCE1;stroke-width:2;stroke-miterlimit:10;}
	.st16{fill:none;stroke:#56AAFF;stroke-width:9.9179;stroke-linecap:round;stroke-miterlimit:10;}
	.st17{fill-rule:evenodd;clip-rule:evenodd;fill:#56AAFF;}
	.st18{fill-rule:evenodd;clip-rule:evenodd;fill:#D9DCE1;}
	.st19{fill-rule:evenodd;clip-rule:evenodd;fill:#0478ED;}
	.st20{fill:none;stroke:#FFFFFF;stroke-width:4;stroke-miterlimit:10;}
	.st21{fill:none;stroke:#0478ED;stroke-width:2;stroke-miterlimit:10;}
	.st22{fill:none;stroke:#FFFFFF;stroke-width:2;stroke-linecap:square;stroke-miterlimit:10;}
	.st23{fill:#FEFEFE;}
	.st24{fill:none;stroke:#FFFFFF;stroke-width:2;stroke-linecap:round;stroke-linejoin:round;stroke-miterlimit:10;}
	.st25{fill:none;stroke:#D9DCE1;stroke-width:3;stroke-linecap:round;stroke-linejoin:round;stroke-miterlimit:10;}
	.st26{fill:none;stroke:#56AAFF;stroke-width:4;stroke-linecap:square;stroke-miterlimit:10;}
	.st27{fill:none;stroke:#56AAFF;stroke-width:4;stroke-miterlimit:10;}
	.st28{fill:none;stroke:#0478ED;stroke-width:2;stroke-linecap:square;stroke-miterlimit:10;}
	.st29{fill:none;stroke:#FFFFFF;stroke-width:3;stroke-miterlimit:10;}
	.st30{fill:none;stroke:#FFFFFF;stroke-width:4;stroke-linecap:round;stroke-miterlimit:10;}
	.st31{fill:none;stroke:#56AAFF;stroke-width:4;stroke-linejoin:round;stroke-miterlimit:10;}
	.st32{fill:none;stroke:#0478ED;stroke-width:2.8187;stroke-miterlimit:10;}
	.st33{fill:none;stroke:#0478ED;stroke-width:2;stroke-linecap:round;stroke-miterlimit:10;}
	.st34{fill:none;stroke:#FFFFFF;stroke-width:2;stroke-linecap:round;stroke-miterlimit:10;}
	.st35{fill:none;stroke:#FFFFFF;stroke-width:6;stroke-linecap:round;stroke-miterlimit:10;}
	.st36{fill:none;stroke:#D9DCE1;stroke-width:4;stroke-linecap:round;stroke-miterlimit:10;}
	.st37{fill:none;stroke:#FFFFFF;stroke-width:2;stroke-miterlimit:10;stroke-dasharray:4.0841,4.0841;}
	.st38{fill:none;stroke:#FFFFFF;stroke-width:2;stroke-miterlimit:10;stroke-dasharray:2;}
	.st39{fill:none;stroke:#D9DCE1;stroke-width:4;stroke-linecap:round;stroke-linejoin:round;stroke-miterlimit:10;}
	.st40{fill:none;stroke:#56AAFF;stroke-width:6;stroke-linecap:round;stroke-linejoin:round;stroke-miterlimit:10;}
	.st41{fill:none;stroke:#FFFFFF;stroke-width:2;stroke-miterlimit:10;stroke-dasharray:8,5;}
	.st42{fill:none;stroke:#56AAFF;stroke-width:3;stroke-miterlimit:10;}
	.st43{fill:none;stroke:#FFFFFF;stroke-width:2;stroke-miterlimit:10;stroke-dasharray:7.5556,4.7222;}
	.st44{fill:none;stroke:#56AAFF;stroke-width:2;stroke-miterlimit:10;}
	.st45{fill:none;stroke:#D9DCE1;stroke-width:10.4595;stroke-linecap:square;stroke-miterlimit:10;}
	.st46{fill:none;stroke:#56AAFF;stroke-width:10.4595;stroke-linecap:square;stroke-miterlimit:10;}
	.st47{fill:none;stroke:#56AAFF;stroke-width:2;stroke-linecap:square;stroke-miterlimit:10;}
	.st48{fill:none;stroke:#D9DCE1;stroke-width:10.7485;stroke-linecap:round;stroke-miterlimit:10;}
	.st49{fill:none;stroke:#0478ED;stroke-width:3.587;stroke-miterlimit:10;}
	.st50{fill:none;stroke:#D9DCE1;stroke-width:3.587;stroke-miterlimit:10;}
	.st51{fill:none;stroke:#0478ED;stroke-width:2.5;stroke-miterlimit:10;}
	.st52{fill:none;stroke:#56AAFF;stroke-width:4;stroke-linecap:round;stroke-linejoin:round;stroke-miterlimit:10;}
	.st53{fill:none;stroke:#D9DCE1;stroke-width:2.852;stroke-miterlimit:10;}
	.st54{fill:none;stroke:#D9DCE1;stroke-width:12.5873;stroke-linecap:round;stroke-miterlimit:10;}
	.st55{fill:none;stroke:#56AAFF;stroke-width:2;stroke-linecap:round;stroke-miterlimit:10;}
	.st56{fill:none;stroke:#D9DCE1;stroke-width:2;stroke-linecap:square;stroke-miterlimit:10;}
	.st57{fill:none;stroke:#D9DCE1;stroke-width:3;stroke-linecap:round;stroke-miterlimit:10;}
</style><rect class="st0" height="5" transform="matrix(-1 -1.224647e-16 1.224647e-16 -1 99 103)" width="15" x="42" y="49"/><rect class="st0" height="5" transform="matrix(-1 -1.224647e-16 1.224647e-16 -1 99 89)" width="15" x="42" y="42"/><rect class="st1" height="5" transform="matrix(-1 -1.224647e-16 1.224647e-16 -1 63 103)" width="15" x="24" y="49"/><rect class="st1" height="5" transform="matrix(-1 -1.224647e-16 1.224647e-16 -1 63 89)" width="15" x="24" y="42"/><rect class="st1" height="5" transform="matrix(-1 -1.224647e-16 1.224647e-16 -1 63 75)" width="15" x="24" y="35"/><rect class="st0" height="5" transform="matrix(-1 -1.224647e-16 1.224647e-16 -1 27 103)" width="15" x="6" y="49"/><rect class="st0" height="5" transform="matrix(-1 -1.224647e-16 1.224647e-16 -1 27 89)" width="15" x="6" y="42"/><rect class="st0" height="5" transform="matrix(-1 -1.224647e-16 1.224647e-16 -1 99 75)" width="15" x="42" y="35"/><rect class="st0" height="5" transform="matrix(-1 -1.224647e-16 1.224647e-16 -1 99 61)" width="15" x="42" y="28"/><path class="st0" d="M49.5,26L49.5,26c4.1,0,7.5-3.4,7.5-7.5v0c0-4.1-3.4-7.5-7.5-7.5h0c-4.1,0-7.5,3.4-7.5,7.5v0  C42,22.6,45.4,26,49.5,26z"/><g><path class="st4" d="M50.1,22.1v1.2H49v-1.2c-0.8-0.1-1.5-0.5-2.1-1.1l0.9-1c0.6,0.6,1.3,0.8,1.9,0.8c0.5,0,0.9-0.3,0.9-0.7   c0-0.5-0.3-0.7-1.2-0.9c-1.2-0.4-2.2-0.8-2.2-2.1c0-1.1,0.7-1.9,1.9-2v-1.2h1.1v1.3c0.7,0.1,1.3,0.4,1.8,0.8l-0.8,1   c-0.6-0.4-1.2-0.6-1.6-0.6c-0.5,0-0.8,0.2-0.8,0.6c0,0.4,0.4,0.6,1.1,0.8c1.4,0.4,2.3,0.8,2.3,2.2C52,21.2,51.3,21.9,50.1,22.1z"/></g><circle class="st51" cx="13.5" cy="35.5" r="2.5"/><circle class="st51" cx="31.5" cy="27.5" r="2.5"/><line class="st51" x1="33.7" x2="41.4" y1="26.4" y2="22.7"/><line class="st51" x1="15.8" x2="26.4" y1="35.1" y2="30"/></svg>