<?xml version="1.0" ?><svg id="Layer_1" style="enable-background:new 0 0 64 64;" version="1.1" viewBox="0 0 64 64" xml:space="preserve" xmlns="http://www.w3.org/2000/svg" xmlns:xlink="http://www.w3.org/1999/xlink"><style type="text/css">
	.st0{fill:#56AAFF;}
	.st1{fill:none;stroke:#0478ED;stroke-width:2;stroke-miterlimit:10;}
	.st2{fill:#0478ED;}
	.st3{fill:#D9DCE1;}
	.st4{fill:none;stroke:#0478ED;stroke-width:5;stroke-linecap:round;stroke-miterlimit:10;}
	.st5{fill:#FFFFFF;}
	.st6{fill:none;stroke:#FFFFFF;stroke-width:2;stroke-miterlimit:10;}
	.st7{fill:none;stroke:#56AAFF;stroke-width:2;stroke-miterlimit:10;}
	.st8{fill:none;stroke:#0478ED;stroke-width:3;stroke-linecap:square;stroke-miterlimit:10;}
	.st9{fill:none;stroke:#56AAFF;stroke-width:5;stroke-miterlimit:10;}
	.st10{fill:none;stroke:#0478ED;stroke-width:3;stroke-miterlimit:10;}
	.st11{fill:none;stroke:#D9DCE1;stroke-width:4;stroke-miterlimit:10;}
	.st12{fill:none;stroke:#56AAFF;stroke-width:3;stroke-miterlimit:10;}
	.st13{fill:none;stroke:#56AAFF;stroke-width:3;stroke-linecap:round;stroke-miterlimit:10;}
	.st14{fill-rule:evenodd;clip-rule:evenodd;fill:#D9DCE1;}
	.st15{fill-rule:evenodd;clip-rule:evenodd;fill:#56AAFF;}
	.st16{fill:none;stroke:#FFFFFF;stroke-width:2;stroke-linecap:round;stroke-linejoin:round;stroke-miterlimit:10;}
	.st17{fill:none;stroke:#0478ED;stroke-width:2;stroke-linecap:round;stroke-miterlimit:10;}
	.st18{fill:none;stroke:#0478ED;stroke-width:2;stroke-linecap:round;stroke-miterlimit:10;stroke-dasharray:0.1099,4.3951;}
	.st19{fill:none;stroke:#0478ED;stroke-width:2;stroke-linecap:round;stroke-miterlimit:10;stroke-dasharray:9.264706e-02,3.7059;}
	.st20{fill:#FFFFFF;stroke:#56AAFF;stroke-width:2;stroke-miterlimit:10;}
	.st21{fill:none;stroke:#FFFFFF;stroke-width:4;stroke-miterlimit:10;}
	.st22{fill:none;stroke:#0478ED;stroke-width:2;stroke-linecap:round;stroke-miterlimit:10;stroke-dasharray:9.776388e-02,3.9106;}
	.st23{fill:none;stroke:#D9DCE1;stroke-width:2;stroke-linecap:round;stroke-miterlimit:10;}
	.st24{fill:none;stroke:#D9DCE1;stroke-width:2;stroke-linecap:round;stroke-miterlimit:10;stroke-dasharray:9.002770e-02,3.6011;}
	.st25{fill:none;stroke:#D9DCE1;stroke-width:2;stroke-linecap:round;stroke-miterlimit:10;stroke-dasharray:0.1152,4.606;}
	.st26{fill:none;stroke:#D9DCE1;stroke-width:2;stroke-linecap:round;stroke-miterlimit:10;stroke-dasharray:9.058228e-02,3.6233;}
	.st27{fill:none;stroke:#D9DCE1;stroke-width:2;stroke-linecap:round;stroke-miterlimit:10;stroke-dasharray:8.905454e-02,3.5622;}
	.st28{fill:none;stroke:#D9DCE1;stroke-width:2;stroke-linecap:round;stroke-miterlimit:10;stroke-dasharray:9.102297e-02,3.6409;}
	.st29{fill:none;stroke:#D9DCE1;stroke-width:2;stroke-linecap:round;stroke-miterlimit:10;stroke-dasharray:9.122662e-02,3.6491;}
	.st30{fill:none;stroke:#D9DCE1;stroke-width:2;stroke-linecap:round;stroke-miterlimit:10;stroke-dasharray:6.419753e-02,2.5679;}
	.st31{fill:none;stroke:#D9DCE1;stroke-width:2;stroke-linecap:round;stroke-miterlimit:10;stroke-dasharray:6.666666e-02,2.6667;}
	.st32{fill:none;stroke:#D9DCE1;stroke-width:2;stroke-linecap:round;stroke-miterlimit:10;stroke-dasharray:6.335912e-02,2.5344;}
	.st33{fill:none;stroke:#D9DCE1;stroke-width:2;stroke-linecap:round;stroke-miterlimit:10;stroke-dasharray:6.514134e-02,2.6057;}
	.st34{fill:none;stroke:#D9DCE1;stroke-width:2;stroke-linecap:round;stroke-miterlimit:10;stroke-dasharray:6.387379e-02,2.555;}
	.st35{fill:none;stroke:#D9DCE1;stroke-width:2;stroke-linecap:round;stroke-miterlimit:10;stroke-dasharray:6.425033e-02,2.57;}
	.st36{fill-rule:evenodd;clip-rule:evenodd;fill:#0478ED;}
	.st37{fill:none;stroke:#56AAFF;stroke-width:3;stroke-linecap:round;stroke-linejoin:round;stroke-miterlimit:10;}
	.st38{fill:none;stroke:#D9DCE1;stroke-width:3;stroke-miterlimit:10;}
</style><g id="custom_x5F_design"/><path class="st14" d="M46.7,19.1l-3.3,0c-0.3-1.3-0.8-2.5-1.5-3.6l2.4-2.3c0.3-0.3,0.3-0.9,0-1.2l-2.4-2.5c-0.3-0.3-0.9-0.3-1.2,0  l-2.4,2.3c-1.1-0.7-2.3-1.2-3.6-1.5l0-3.3c0-0.5-0.4-0.9-0.9-0.9l-3.4,0c-0.5,0-0.9,0.4-0.9,0.9l0,3.3c-1.3,0.3-2.5,0.8-3.6,1.5  l-2.3-2.4c-0.3-0.3-0.9-0.3-1.2,0l-2.5,2.4c-0.3,0.3-0.3,0.9,0,1.2l2.3,2.4c-0.7,1.1-1.2,2.3-1.5,3.6l-3.3,0c-0.5,0-0.9,0.4-0.9,0.9  l0,3.4c0,0.5,0.4,0.9,0.9,0.9l3.3,0c0.3,1.3,0.8,2.5,1.5,3.6l-2.4,2.3c-0.3,0.3-0.3,0.9,0,1.2l2.4,2.5c0.3,0.3,0.9,0.3,1.2,0  l2.4-2.3c1.1,0.7,2.3,1.2,3.6,1.5l0,3.3c0,0.5,0.4,0.9,0.9,0.9l3.4,0c0.5,0,0.9-0.4,0.9-0.9l0-3.3c1.3-0.3,2.5-0.8,3.6-1.5l2.3,2.4  c0.3,0.3,0.9,0.3,1.2,0l2.5-2.4c0.3-0.3,0.3-0.9,0-1.2l-2.3-2.4c0.7-1.1,1.2-2.3,1.5-3.6l3.3,0c0.5,0,0.9-0.4,0.9-0.9l0-3.4  C47.5,19.5,47.1,19.1,46.7,19.1z M32,24.9c-1.8,0-3.3-1.5-3.3-3.4c0-1.8,1.5-3.3,3.4-3.3c1.8,0,3.3,1.5,3.3,3.4  C35.3,23.4,33.8,24.9,32,24.9z"/><polygon class="st15" points="13.4,30 28,49.6 28,53.9 37,58.3 37,49.6 51.6,30 "/><path class="st36" d="M51.9,33H12.1c-0.6,0-1.1-0.5-1.1-1.1v-6.8c0-0.6,0.5-1.1,1.1-1.1h39.8c0.6,0,1.1,0.5,1.1,1.1v6.8  C53,32.5,52.5,33,51.9,33z"/></svg>