<?xml version="1.0" ?><svg id="Layer_1" style="enable-background:new 0 0 64 64;" version="1.1" viewBox="0 0 64 64" xml:space="preserve" xmlns="http://www.w3.org/2000/svg" xmlns:xlink="http://www.w3.org/1999/xlink"><style type="text/css">
	.st0{fill:#D9DCE1;}
	.st1{fill:#FFFFFF;}
	.st2{fill:#56AAFF;}
	.st3{fill:#0478ED;}
	.st4{fill:none;stroke:#0478ED;stroke-width:2;stroke-linecap:square;stroke-miterlimit:10;}
	.st5{fill:none;stroke:#D9DCE1;stroke-width:2;stroke-linecap:round;stroke-miterlimit:10;}
	.st6{fill:none;stroke:#FFFFFF;stroke-width:3;stroke-linecap:round;stroke-linejoin:round;stroke-miterlimit:10;}
	.st7{fill-rule:evenodd;clip-rule:evenodd;fill:#0478ED;}
	.st8{fill:none;stroke:#FFFFFF;stroke-width:5;stroke-linecap:square;stroke-miterlimit:10;}
	.st9{fill:none;stroke:#0478ED;stroke-width:3;stroke-linecap:square;stroke-miterlimit:10;}
	.st10{fill:none;stroke:#0478ED;stroke-width:3;stroke-miterlimit:10;}
	.st11{fill:none;stroke:#D9DCE1;stroke-width:4;stroke-miterlimit:10;}
	.st12{fill:none;stroke:#D9DCE1;stroke-width:2;stroke-miterlimit:10;}
	.st13{fill:none;stroke:#56AAFF;stroke-width:3;stroke-linecap:round;stroke-miterlimit:10;}
	.st14{fill:none;stroke:#56AAFF;stroke-width:4;stroke-linecap:round;stroke-miterlimit:10;}
	.st15{fill:none;stroke:#D9DCE1;stroke-width:3;stroke-miterlimit:10;}
	.st16{fill:none;stroke:#56AAFF;stroke-width:2;stroke-linecap:round;stroke-miterlimit:10;}
	.st17{fill:none;stroke:#0478ED;stroke-width:3;stroke-linecap:round;stroke-miterlimit:10;}
	.st18{fill:none;stroke:#56AAFF;stroke-linecap:round;stroke-miterlimit:10;}
	.st19{fill:none;stroke:#0478ED;stroke-width:2;stroke-linecap:round;stroke-miterlimit:10;}
	.st20{fill:none;stroke:#D9DCE1;stroke-width:12.605;stroke-linecap:round;stroke-miterlimit:10;}
	.st21{fill:none;stroke:#FFFFFF;stroke-width:2;stroke-linecap:round;stroke-linejoin:round;stroke-miterlimit:10;}
	.st22{fill:none;stroke:#FFFFFF;stroke-width:2;stroke-linecap:square;stroke-miterlimit:10;}
	.st23{fill:none;stroke:#FFFFFF;stroke-width:4;stroke-linecap:round;stroke-linejoin:round;stroke-miterlimit:10;}
	.st24{fill:none;stroke:#FFFFFF;stroke-width:2;stroke-miterlimit:10;}
	.st25{fill-rule:evenodd;clip-rule:evenodd;fill:#56AAFF;}
	.st26{fill:none;stroke:#0478ED;stroke-width:4;stroke-linecap:round;stroke-miterlimit:10;}
	.st27{fill:none;stroke:#0478ED;stroke-width:2;stroke-miterlimit:10;stroke-dasharray:2,2;}
</style><path class="st25" d="M54.7,28h-5.1c-0.5-2-1.3-3.9-2.3-5.6l3.6-3.6c0.5-0.5,0.5-1.4,0-1.9l-3.8-3.8c-0.5-0.5-1.4-0.5-1.9,0  l-3.6,3.6c-1.7-1.1-3.6-1.9-5.6-2.3V9.3C36,8.6,35.4,8,34.7,8H32v16.4c4.2,0,7.6,3.4,7.6,7.6c0,4.2-3.4,7.6-7.6,7.6V56h2.7  c0.7,0,1.3-0.6,1.3-1.3v-5.1c2-0.5,3.9-1.3,5.6-2.3l3.6,3.6c0.5,0.5,1.4,0.5,1.9,0l3.8-3.8c0.5-0.5,0.5-1.4,0-1.9l-3.6-3.6  c1.1-1.7,1.9-3.6,2.3-5.6h5.1c0.7,0,1.3-0.6,1.3-1.3v-5.3C56,28.6,55.4,28,54.7,28z"/><path class="st0" d="M32,56C18.7,56,8,45.3,8,32S18.7,8,32,8"/><line class="st26" x1="32" x2="43.8" y1="32" y2="30.1"/><g><path class="st2" d="M27.2,15.7l5.8,16c0.2,0.5-0.1,1.1-0.6,1.3c-0.5,0.2-1.1-0.1-1.3-0.6l0,0l-5.7-16c-0.2-0.5,0.1-1.1,0.6-1.2   C26.4,14.9,27,15.2,27.2,15.7z"/></g><circle class="st2" cx="32" cy="32" r="3.1"/></svg>