<?xml version="1.0" encoding="utf-8"?>
<!-- Generator: Adobe Illustrator 22.1.0, SVG Export Plug-In . SVG Version: 6.00 Build 0)  -->
<svg version="1.1" id="Layer_1" xmlns:sketch="http://www.bohemiancoding.com/sketch/ns"
	 xmlns="http://www.w3.org/2000/svg" xmlns:xlink="http://www.w3.org/1999/xlink" x="0px" y="0px" viewBox="0 0 97.5 14.5"
	 style="enable-background:new 0 0 97.5 14.5;" xml:space="preserve">
<style type="text/css">
	.st0{fill:#FFFFFF;}
	.st1{fill:#FFFFFF;stroke:#FFFFFF;stroke-width:0.15;stroke-miterlimit:10;}
</style>
<title></title>
<desc></desc>
<g>
	<path class="st0" d="M26.9,10.7l-0.2-0.8h-0.1c-0.2,0.3-0.4,0.5-0.7,0.6c-0.3,0.2-0.7,0.2-1.1,0.2c-0.7,0-1.3-0.2-1.6-0.5
		c-0.4-0.4-0.5-0.9-0.5-1.6V4.7H24v3.7c0,0.5,0.1,0.8,0.3,1c0.2,0.2,0.5,0.3,0.9,0.3c0.5,0,0.9-0.2,1.2-0.5c0.2-0.3,0.4-0.8,0.4-1.6
		v-3h1.3v5.9H26.9z"/>
	<path class="st0" d="M32.4,10.8c-0.8,0-1.3-0.3-1.8-0.8h-0.1c0,0.5,0.1,0.8,0.1,0.9v2.4h-1.3V4.7h1c0,0.1,0.1,0.4,0.2,0.8h0.1
		c0.4-0.6,1-0.9,1.8-0.9c0.7,0,1.3,0.3,1.7,0.8c0.4,0.5,0.6,1.3,0.6,2.3c0,1-0.2,1.7-0.6,2.3C33.7,10.5,33.1,10.8,32.4,10.8z
		 M32.1,5.6c-0.5,0-0.9,0.1-1.1,0.4c-0.2,0.3-0.3,0.8-0.3,1.4v0.2c0,0.7,0.1,1.2,0.3,1.6c0.2,0.3,0.6,0.5,1.1,0.5
		c0.4,0,0.8-0.2,1-0.5c0.2-0.4,0.4-0.9,0.4-1.5c0-0.7-0.1-1.2-0.4-1.5C32.9,5.8,32.5,5.6,32.1,5.6z"/>
	<path class="st0" d="M37.1,10.7h-1.3V2.3h1.3V10.7z"/>
	<path class="st0" d="M43.8,7.7c0,1-0.2,1.7-0.7,2.3c-0.5,0.5-1.2,0.8-2.1,0.8c-0.6,0-1-0.1-1.5-0.4c-0.4-0.2-0.8-0.6-1-1.1
		c-0.2-0.5-0.3-1-0.3-1.6c0-1,0.2-1.7,0.7-2.3s1.2-0.8,2.1-0.8c0.9,0,1.5,0.3,2,0.8C43.6,6,43.8,6.7,43.8,7.7z M39.5,7.7
		C39.5,9,40,9.7,41,9.7c1,0,1.5-0.7,1.5-2.1c0-1.4-0.5-2-1.5-2c-0.5,0-0.9,0.2-1.2,0.5S39.5,7,39.5,7.7z"/>
	<path class="st0" d="M48.6,10.7l-0.3-0.8h0c-0.3,0.4-0.6,0.6-0.9,0.7c-0.3,0.1-0.7,0.2-1.1,0.2c-0.6,0-1-0.2-1.4-0.5
		c-0.3-0.3-0.5-0.8-0.5-1.3c0-0.6,0.2-1.1,0.7-1.4c0.5-0.3,1.1-0.5,2.1-0.5l1,0V6.7c0-0.4-0.1-0.7-0.3-0.9c-0.2-0.2-0.5-0.3-0.8-0.3
		c-0.3,0-0.6,0-0.9,0.1S45.7,5.9,45.5,6l-0.4-0.9c0.3-0.2,0.7-0.3,1.1-0.4c0.4-0.1,0.7-0.1,1.1-0.1c0.8,0,1.3,0.2,1.7,0.5
		s0.6,0.8,0.6,1.6v4H48.6z M46.7,9.8c0.5,0,0.8-0.1,1.1-0.4s0.4-0.6,0.4-1.1V7.8l-0.8,0c-0.6,0-1,0.1-1.3,0.3
		c-0.3,0.2-0.4,0.4-0.4,0.8c0,0.3,0.1,0.5,0.2,0.6C46.2,9.7,46.4,9.8,46.7,9.8z"/>
	<path class="st0" d="M52.9,10.8c-0.7,0-1.3-0.3-1.7-0.8s-0.6-1.3-0.6-2.3c0-1,0.2-1.7,0.6-2.3c0.4-0.5,1-0.8,1.7-0.8
		c0.8,0,1.4,0.3,1.8,0.9h0.1c-0.1-0.4-0.1-0.8-0.1-1V2.3h1.3v8.4h-1l-0.2-0.8h-0.1C54.3,10.5,53.7,10.8,52.9,10.8z M53.2,9.7
		c0.5,0,0.9-0.1,1.1-0.4s0.4-0.8,0.4-1.4V7.7c0-0.7-0.1-1.3-0.4-1.6c-0.2-0.3-0.6-0.5-1.1-0.5c-0.4,0-0.8,0.2-1,0.5
		C52,6.5,51.8,7,51.8,7.7c0,0.7,0.1,1.2,0.3,1.5C52.4,9.6,52.8,9.7,53.2,9.7z"/>
	<path class="st0" d="M60.3,5.7h-1.4v5h-1.3v-5h-1V5.1l1-0.4V4.3c0-0.7,0.2-1.2,0.5-1.6c0.3-0.3,0.8-0.5,1.5-0.5
		c0.4,0,0.9,0.1,1.3,0.2l-0.3,1c-0.3-0.1-0.6-0.2-0.9-0.2c-0.3,0-0.5,0.1-0.6,0.3C59,3.7,58.9,4,58.9,4.3v0.4h1.4V5.7z M61.3,3.1
		c0-0.2,0.1-0.4,0.2-0.5c0.1-0.1,0.3-0.2,0.5-0.2c0.2,0,0.4,0.1,0.5,0.2c0.1,0.1,0.2,0.3,0.2,0.5c0,0.2-0.1,0.4-0.2,0.5
		c-0.1,0.1-0.3,0.2-0.5,0.2c-0.2,0-0.4-0.1-0.5-0.2C61.3,3.5,61.3,3.4,61.3,3.1z M62.6,10.7h-1.3V4.7h1.3V10.7z"/>
	<path class="st0" d="M65.3,10.7h-1.3V2.3h1.3V10.7z"/>
	<path class="st0" d="M69,9.7c0.3,0,0.6,0,0.9-0.1v1c-0.1,0.1-0.3,0.1-0.5,0.2c-0.2,0-0.4,0.1-0.7,0.1c-1.2,0-1.8-0.6-1.8-1.9V5.7
		h-0.8V5.1l0.9-0.5l0.4-1.3h0.8v1.3h1.7v1h-1.7v3.2c0,0.3,0.1,0.5,0.2,0.7C68.5,9.7,68.7,9.7,69,9.7z"/>
	<path class="st0" d="M73.3,10.8c-0.9,0-1.6-0.3-2.2-0.8c-0.5-0.5-0.8-1.3-0.8-2.2c0-1,0.2-1.7,0.7-2.3c0.5-0.6,1.1-0.8,2-0.8
		c0.8,0,1.4,0.2,1.9,0.7s0.7,1.1,0.7,2V8h-4c0,0.6,0.2,1,0.5,1.3c0.3,0.3,0.7,0.5,1.2,0.5c0.4,0,0.7,0,1-0.1c0.3-0.1,0.6-0.2,1-0.3
		v1c-0.3,0.1-0.6,0.2-0.9,0.3C74.1,10.7,73.7,10.8,73.3,10.8z M73.1,5.6c-0.4,0-0.7,0.1-1,0.4c-0.2,0.3-0.4,0.6-0.4,1.1h2.7
		c0-0.5-0.1-0.9-0.4-1.1C73.8,5.7,73.5,5.6,73.1,5.6z"/>
	<path class="st0" d="M79.7,4.6c0.3,0,0.5,0,0.6,0.1l-0.1,1.2c-0.2,0-0.4-0.1-0.6-0.1c-0.5,0-0.9,0.2-1.2,0.5S77.9,7,77.9,7.5v3.1
		h-1.3V4.7h1l0.2,1h0.1c0.2-0.4,0.5-0.6,0.8-0.8C79,4.7,79.3,4.6,79.7,4.6z"/>
	<path class="st0" d="M80.8,10c0-0.3,0.1-0.5,0.2-0.6c0.1-0.1,0.3-0.2,0.6-0.2c0.3,0,0.5,0.1,0.6,0.2c0.1,0.1,0.2,0.3,0.2,0.6
		c0,0.3-0.1,0.5-0.2,0.6c-0.1,0.1-0.3,0.2-0.6,0.2s-0.5-0.1-0.6-0.2C80.9,10.4,80.8,10.2,80.8,10z"/>
	<path class="st0" d="M83.6,3.1c0-0.2,0.1-0.4,0.2-0.5c0.1-0.1,0.3-0.2,0.5-0.2c0.2,0,0.4,0.1,0.5,0.2C85,2.7,85,2.9,85,3.1
		c0,0.2-0.1,0.4-0.2,0.5c-0.1,0.1-0.3,0.2-0.5,0.2c-0.2,0-0.4-0.1-0.5-0.2C83.7,3.5,83.6,3.4,83.6,3.1z M84.9,10.7h-1.3V4.7h1.3
		V10.7z"/>
	<path class="st0" d="M91.6,7.7c0,1-0.2,1.7-0.7,2.3c-0.5,0.5-1.2,0.8-2.1,0.8c-0.6,0-1-0.1-1.5-0.4c-0.4-0.2-0.8-0.6-1-1.1
		c-0.2-0.5-0.3-1-0.3-1.6c0-1,0.2-1.7,0.7-2.3s1.2-0.8,2.1-0.8c0.9,0,1.5,0.3,2,0.8C91.4,6,91.6,6.7,91.6,7.7z M87.3,7.7
		c0,1.4,0.5,2.1,1.5,2.1c1,0,1.5-0.7,1.5-2.1c0-1.4-0.5-2-1.5-2c-0.5,0-0.9,0.2-1.2,0.5S87.3,7,87.3,7.7z"/>
</g>
<g>
	<path class="st1" d="M1.5,3.8h4.4c0.2,0.8,1,1.5,1.9,1.5s1.7-0.6,1.9-1.5h6.5c0.3,0,0.5-0.2,0.5-0.5s-0.2-0.5-0.5-0.5H9.6
		C9.4,2,8.7,1.4,7.7,1.4S6.1,2,5.8,2.8H1.5C1.2,2.8,1,3,1,3.3S1.2,3.8,1.5,3.8z M7.7,2.3c0.5,0,1,0.4,1,1s-0.4,1-1,1s-1-0.4-1-1
		S7.2,2.3,7.7,2.3z"/>
	<path class="st1" d="M16.2,6.7h-1c-0.2-0.8-1-1.5-1.9-1.5c-0.9,0-1.7,0.6-1.9,1.5H1.5C1.2,6.7,1,7,1,7.2s0.2,0.5,0.5,0.5h9.8
		c0.2,0.8,1,1.5,1.9,1.5c0.9,0,1.7-0.6,1.9-1.5h1c0.3,0,0.5-0.2,0.5-0.5S16.4,6.7,16.2,6.7z M13.2,8.2c-0.5,0-1-0.4-1-1s0.4-1,1-1
		c0.5,0,1,0.4,1,1S13.8,8.2,13.2,8.2z"/>
	<path class="st1" d="M16.2,10.6H6.7c-0.2-0.8-1-1.5-1.9-1.5c-0.9,0-1.7,0.6-1.9,1.5H1.5c-0.3,0-0.5,0.2-0.5,0.5s0.2,0.5,0.5,0.5
		h1.4c0.2,0.8,1,1.5,1.9,1.5c0.9,0,1.7-0.6,1.9-1.5h9.5c0.3,0,0.5-0.2,0.5-0.5S16.4,10.6,16.2,10.6z M4.8,12.1c-0.5,0-1-0.4-1-1
		s0.4-1,1-1c0.5,0,1,0.4,1,1S5.3,12.1,4.8,12.1z"/>
</g>
</svg>
